<?xml version="1.0" encoding="UTF-8" standalone="no"?>
<!DOCTYPE svg PUBLIC "-//W3C//DTD SVG 1.1//EN"
 "http://www.w3.org/Graphics/SVG/1.1/DTD/svg11.dtd">
<!-- Generated by graphviz version 2.30.1 (20180420.1509)
 -->
<!-- Title: G Pages: 1 -->
<svg width="979pt" height="1284pt"
 viewBox="0.00 0.00 979.00 1284.00" xmlns="http://www.w3.org/2000/svg" xmlns:xlink="http://www.w3.org/1999/xlink">
<g id="graph0" class="graph" transform="scale(1 1) rotate(0) translate(4 1280)">
<title>G</title>
<polygon fill="white" stroke="white" points="-4,5 -4,-1280 976,-1280 976,5 -4,5"/>
<g id="clust1" class="cluster"><title>cluster_Global</title>
<path fill="none" stroke="gray" d="M20,-152C20,-152 951,-152 951,-152 957,-152 963,-158 963,-164 963,-164 963,-1256 963,-1256 963,-1262 957,-1268 951,-1268 951,-1268 20,-1268 20,-1268 14,-1268 8,-1262 8,-1256 8,-1256 8,-164 8,-164 8,-158 14,-152 20,-152"/>
<text text-anchor="middle" x="485.5" y="-1255.2" font-family="Times,serif" font-size="11.00" fill="gray">Global</text>
</g>
<g id="clust2" class="cluster"><title>cluster_\TBela</title>
<path fill="none" stroke="gray" d="M28,-160C28,-160 943,-160 943,-160 949,-160 955,-166 955,-172 955,-172 955,-1228 955,-1228 955,-1234 949,-1240 943,-1240 943,-1240 28,-1240 28,-1240 22,-1240 16,-1234 16,-1228 16,-1228 16,-172 16,-172 16,-166 22,-160 28,-160"/>
<text text-anchor="middle" x="485.5" y="-1227.2" font-family="Times,serif" font-size="11.00" fill="gray">TBela</text>
</g>
<g id="clust3" class="cluster"><title>cluster_\TBela\CSS</title>
<path fill="none" stroke="gray" d="M36,-168C36,-168 935,-168 935,-168 941,-168 947,-174 947,-180 947,-180 947,-1200 947,-1200 947,-1206 941,-1212 935,-1212 935,-1212 36,-1212 36,-1212 30,-1212 24,-1206 24,-1200 24,-1200 24,-180 24,-180 24,-174 30,-168 36,-168"/>
<text text-anchor="middle" x="485.5" y="-1199.2" font-family="Times,serif" font-size="11.00" fill="gray">CSS</text>
</g>
<g id="clust4" class="cluster"><title>cluster_\TBela\CSS\Property</title>
<path fill="none" stroke="gray" d="M44,-276C44,-276 374,-276 374,-276 380,-276 386,-282 386,-288 386,-288 386,-552 386,-552 386,-558 380,-564 374,-564 374,-564 44,-564 44,-564 38,-564 32,-558 32,-552 32,-552 32,-288 32,-288 32,-282 38,-276 44,-276"/>
<text text-anchor="middle" x="209" y="-551.2" font-family="Times,serif" font-size="11.00" fill="gray">Property</text>
</g>
<g id="clust5" class="cluster"><title>cluster_\TBela\CSS\Value</title>
<path fill="none" stroke="gray" d="M710,-492C710,-492 927,-492 927,-492 933,-492 939,-498 939,-504 939,-504 939,-876 939,-876 939,-882 933,-888 927,-888 927,-888 710,-888 710,-888 704,-888 698,-882 698,-876 698,-876 698,-504 698,-504 698,-498 704,-492 710,-492"/>
<text text-anchor="middle" x="818.5" y="-875.2" font-family="Times,serif" font-size="11.00" fill="gray">Value</text>
</g>
<g id="clust6" class="cluster"><title>cluster_\TBela\CSS\Element</title>
<path fill="none" stroke="gray" d="M843,-896C843,-896 927,-896 927,-896 933,-896 939,-902 939,-908 939,-908 939,-1172 939,-1172 939,-1178 933,-1184 927,-1184 927,-1184 843,-1184 843,-1184 837,-1184 831,-1178 831,-1172 831,-1172 831,-908 831,-908 831,-902 837,-896 843,-896"/>
<text text-anchor="middle" x="885" y="-1171.2" font-family="Times,serif" font-size="11.00" fill="gray">Element</text>
</g>
<g id="clust7" class="cluster"><title>cluster_\TBela\CSS\Elements</title>
<path fill="none" stroke="gray" d="M711,-896C711,-896 758,-896 758,-896 764,-896 770,-902 770,-908 770,-908 770,-956 770,-956 770,-962 764,-968 758,-968 758,-968 711,-968 711,-968 705,-968 699,-962 699,-956 699,-956 699,-908 699,-908 699,-902 705,-896 711,-896"/>
<text text-anchor="middle" x="734.5" y="-955.2" font-family="Times,serif" font-size="11.00" fill="gray">Elements</text>
</g>
<!-- \\TBela\\CSS\\Property\\Comment -->
<g id="node1" class="node"><title>\\TBela\\CSS\\Property\\Comment</title>
<polygon fill="none" stroke="black" points="361,-482 297,-482 297,-446 361,-446 361,-482"/>
<text text-anchor="middle" x="329" y="-461.2" font-family="Courier,monospace" font-size="11.00">Comment</text>
</g>
<!-- \\ArrayAccess -->
<g id="node31" class="node"><title>\\ArrayAccess</title>
<ellipse fill="none" stroke="black" cx="109" cy="-126" rx="72.5877" ry="18"/>
<text text-anchor="middle" x="109" y="-122.3" font-family="Times,serif" font-size="14.00" fill="gray">\ArrayAccess</text>
</g>
<!-- \\TBela\\CSS\\Property\\Comment&#45;&gt;\\ArrayAccess -->
<g id="edge1" class="edge"><title>\\TBela\\CSS\\Property\\Comment&#45;&gt;\\ArrayAccess</title>
<path fill="none" stroke="black" stroke-dasharray="1,5" d="M296.771,-451.252C290.481,-447.464 284.445,-442.749 280,-437 203.25,-337.727 291.622,-257.558 208,-164 199.133,-154.08 187.367,-146.728 175.073,-141.286"/>
<polygon fill="none" stroke="black" points="176.192,-137.963 165.608,-137.486 173.584,-144.459 176.192,-137.963"/>
</g>
<!-- \\TBela\\CSS\\Rendererable -->
<g id="node27" class="node"><title>\\TBela\\CSS\\Rendererable</title>
<polygon fill="none" stroke="black" points="158,-268 60,-268 60,-232 158,-232 158,-268"/>
<text text-anchor="middle" x="109" y="-247.2" font-family="Courier,monospace" font-size="11.00">Rendererable</text>
</g>
<!-- \\TBela\\CSS\\Property\\Comment&#45;&gt;\\TBela\\CSS\\Rendererable -->
<g id="edge2" class="edge"><title>\\TBela\\CSS\\Property\\Comment&#45;&gt;\\TBela\\CSS\\Rendererable</title>
<path fill="none" stroke="black" stroke-dasharray="1,5" d="M296.907,-450.423C290.756,-446.719 284.744,-442.249 280,-437 226.35,-377.642 269.704,-322.935 208,-272 196.691,-262.665 182.238,-257.089 167.925,-253.81"/>
<polygon fill="none" stroke="black" points="168.565,-250.369 158.079,-251.888 167.224,-257.239 168.565,-250.369"/>
</g>
<!-- \\TBela\\CSS\\Property\\Property -->
<g id="node2" class="node"><title>\\TBela\\CSS\\Property\\Property</title>
<polygon fill="none" stroke="black" points="364.5,-536 293.5,-536 293.5,-500 364.5,-500 364.5,-536"/>
<text text-anchor="middle" x="329" y="-515.2" font-family="Courier,monospace" font-size="11.00">Property</text>
</g>
<!-- \\TBela\\CSS\\Property\\Property&#45;&gt;\\ArrayAccess -->
<g id="edge8" class="edge"><title>\\TBela\\CSS\\Property\\Property&#45;&gt;\\ArrayAccess</title>
<path fill="none" stroke="black" stroke-dasharray="1,5" d="M293.162,-503.191C288.163,-499.803 283.529,-495.763 280,-491 191.419,-371.421 304.868,-276.971 208,-164 199.386,-153.954 187.789,-146.551 175.59,-141.099"/>
<polygon fill="none" stroke="black" points="176.766,-137.799 166.183,-137.298 174.144,-144.289 176.766,-137.799"/>
</g>
<!-- \\TBela\\CSS\\Property\\Property&#45;&gt;\\TBela\\CSS\\Rendererable -->
<g id="edge9" class="edge"><title>\\TBela\\CSS\\Property\\Property&#45;&gt;\\TBela\\CSS\\Rendererable</title>
<path fill="none" stroke="black" stroke-dasharray="1,5" d="M293.08,-502.547C288.215,-499.269 283.643,-495.432 280,-491 214.938,-411.85 283.87,-340.859 208,-272 197.037,-262.05 182.566,-256.28 168.119,-253.012"/>
<polygon fill="none" stroke="black" points="168.642,-249.549 158.166,-251.128 167.34,-256.427 168.642,-249.549"/>
</g>
<!-- \\TBela\\CSS\\Property\\RenderableProperty -->
<g id="node6" class="node"><title>\\TBela\\CSS\\Property\\RenderableProperty</title>
<polygon fill="none" stroke="black" points="178,-536 40,-536 40,-500 178,-500 178,-536"/>
<text text-anchor="middle" x="109" y="-515.2" font-family="Courier,monospace" font-size="11.00">RenderableProperty</text>
</g>
<!-- \\TBela\\CSS\\Property\\Property&#45;&gt;\\TBela\\CSS\\Property\\RenderableProperty -->
<g id="edge10" class="edge"><title>\\TBela\\CSS\\Property\\Property&#45;&gt;\\TBela\\CSS\\Property\\RenderableProperty</title>
<path fill="none" stroke="black" stroke-dasharray="1,5" d="M293.457,-518C265.254,-518 224.311,-518 188.255,-518"/>
<polygon fill="none" stroke="black" points="188.23,-514.5 178.23,-518 188.23,-521.5 188.23,-514.5"/>
</g>
<!-- \\TBela\\CSS\\Property\\Config -->
<g id="node3" class="node"><title>\\TBela\\CSS\\Property\\Config</title>
<polygon fill="none" stroke="black" points="357.5,-428 300.5,-428 300.5,-392 357.5,-392 357.5,-428"/>
<text text-anchor="middle" x="329" y="-407.2" font-family="Courier,monospace" font-size="11.00">Config</text>
</g>
<!-- \\TBela\\CSS\\Property\\PropertySet -->
<g id="node4" class="node"><title>\\TBela\\CSS\\Property\\PropertySet</title>
<polygon fill="none" stroke="black" points="374.5,-374 283.5,-374 283.5,-338 374.5,-338 374.5,-374"/>
<text text-anchor="middle" x="329" y="-353.2" font-family="Courier,monospace" font-size="11.00">PropertySet</text>
</g>
<!-- \\TBela\\CSS\\Property\\PropertyList -->
<g id="node5" class="node"><title>\\TBela\\CSS\\Property\\PropertyList</title>
<polygon fill="none" stroke="black" points="378,-320 280,-320 280,-284 378,-284 378,-320"/>
<text text-anchor="middle" x="329" y="-299.2" font-family="Courier,monospace" font-size="11.00">PropertyList</text>
</g>
<!-- \\IteratorAggregate -->
<g id="node33" class="node"><title>\\IteratorAggregate</title>
<ellipse fill="none" stroke="black" cx="109" cy="-72" rx="98.5829" ry="18"/>
<text text-anchor="middle" x="109" y="-68.3" font-family="Times,serif" font-size="14.00" fill="gray">\IteratorAggregate</text>
</g>
<!-- \\TBela\\CSS\\Property\\PropertyList&#45;&gt;\\IteratorAggregate -->
<g id="edge17" class="edge"><title>\\TBela\\CSS\\Property\\PropertyList&#45;&gt;\\IteratorAggregate</title>
<path fill="none" stroke="black" stroke-dasharray="1,5" d="M284.053,-283.771C282.621,-282.585 281.263,-281.329 280,-280 220.368,-217.236 272.484,-156.768 208,-99 203.453,-94.9264 198.345,-91.4607 192.911,-88.513"/>
<polygon fill="none" stroke="black" points="194.033,-85.1703 183.5,-84.0254 191.02,-91.4887 194.033,-85.1703"/>
</g>
<!-- \\TBela\\CSS\\Value\\Number -->
<g id="node7" class="node"><title>\\TBela\\CSS\\Value\\Number</title>
<polygon fill="none" stroke="black" points="763.5,-802 706.5,-802 706.5,-766 763.5,-766 763.5,-802"/>
<text text-anchor="middle" x="735" y="-781.2" font-family="Courier,monospace" font-size="11.00">Number</text>
</g>
<!-- \\TBela\\CSS\\Value -->
<g id="node32" class="node"><title>\\TBela\\CSS\\Value</title>
<ellipse fill="none" stroke="black" cx="542" cy="-126" rx="91.784" ry="18"/>
<text text-anchor="middle" x="542" y="-122.3" font-family="Times,serif" font-size="14.00" fill="gray">\TBela\CSS\Value</text>
</g>
<!-- \\TBela\\CSS\\Value\\Number&#45;&gt;\\TBela\\CSS\\Value -->
<g id="edge3" class="edge"><title>\\TBela\\CSS\\Value\\Number&#45;&gt;\\TBela\\CSS\\Value</title>
<path fill="none" stroke="black" d="M725.108,-765.856C716.756,-748.006 704.587,-719.76 698,-694 668.611,-579.065 705.578,-258.607 634,-164 627.88,-155.91 619.718,-149.53 610.787,-144.501"/>
<polygon fill="none" stroke="black" points="612.154,-141.271 601.647,-139.909 609.012,-147.526 612.154,-141.271"/>
</g>
<!-- \\TBela\\CSS\\Value\\CSSFunction -->
<g id="node8" class="node"><title>\\TBela\\CSS\\Value\\CSSFunction</title>
<polygon fill="none" stroke="black" points="930.5,-644 839.5,-644 839.5,-608 930.5,-608 930.5,-644"/>
<text text-anchor="middle" x="885" y="-623.2" font-family="Courier,monospace" font-size="11.00">CSSFunction</text>
</g>
<!-- \\TBela\\CSS\\Value\\CSSFunction&#45;&gt;\\TBela\\CSS\\Value -->
<g id="edge4" class="edge"><title>\\TBela\\CSS\\Value\\CSSFunction&#45;&gt;\\TBela\\CSS\\Value</title>
<path fill="none" stroke="black" d="M844.679,-644.096C804.021,-662.213 745.197,-686.535 736,-680"/>
</g>
<!-- \\TBela\\CSS\\Value\\Set -->
<g id="node9" class="node"><title>\\TBela\\CSS\\Value\\Set</title>
<polygon fill="none" stroke="black" points="912,-536 858,-536 858,-500 912,-500 912,-536"/>
<text text-anchor="middle" x="885" y="-515.2" font-family="Courier,monospace" font-size="11.00">Set</text>
</g>
<!-- \\TBela\\CSS\\Value\\Set&#45;&gt;\\IteratorAggregate -->
<g id="edge5" class="edge"><title>\\TBela\\CSS\\Value\\Set&#45;&gt;\\IteratorAggregate</title>
<path fill="none" stroke="black" stroke-dasharray="1,5" d="M328,-72C291.984,-69.7982 252.559,-69.2364 217.258,-69.3984"/>
<polygon fill="none" stroke="black" points="216.909,-65.9005 206.933,-69.4667 216.956,-72.9004 216.909,-65.9005"/>
</g>
<!-- \\JsonSerializable -->
<g id="node34" class="node"><title>\\JsonSerializable</title>
<ellipse fill="none" stroke="black" cx="109" cy="-18" rx="88.2844" ry="18"/>
<text text-anchor="middle" x="109" y="-14.3" font-family="Times,serif" font-size="14.00" fill="gray">\JsonSerializable</text>
</g>
<!-- \\TBela\\CSS\\Value\\Set&#45;&gt;\\JsonSerializable -->
<g id="edge6" class="edge"><title>\\TBela\\CSS\\Value\\Set&#45;&gt;\\JsonSerializable</title>
<path fill="none" stroke="black" stroke-dasharray="1,5" d="M857.867,-511.328C848.539,-507.938 838.496,-503.008 831,-496 687.12,-361.474 796.638,-210.119 634,-99 522.002,-22.4797 465.39,-80.277 330,-72"/>
<path fill="none" stroke="black" stroke-dasharray="1,5" d="M328,-72C312.543,-70.7999 232.145,-50.2473 173.467,-34.8523"/>
<polygon fill="none" stroke="black" points="174.079,-31.3944 163.518,-32.2369 172.3,-38.1644 174.079,-31.3944"/>
</g>
<!-- \\TBela\\CSS\\Value\\Unit -->
<g id="node10" class="node"><title>\\TBela\\CSS\\Value\\Unit</title>
<polygon fill="none" stroke="black" points="912,-860 858,-860 858,-824 912,-824 912,-860"/>
<text text-anchor="middle" x="885" y="-839.2" font-family="Courier,monospace" font-size="11.00">Unit</text>
</g>
<!-- \\TBela\\CSS\\Value\\Unit&#45;&gt;\\TBela\\CSS\\Value\\Number -->
<g id="edge13" class="edge"><title>\\TBela\\CSS\\Value\\Unit&#45;&gt;\\TBela\\CSS\\Value\\Number</title>
<path fill="none" stroke="black" d="M857.881,-831.764C834.305,-822.525 799.364,-808.832 772.931,-798.473"/>
<polygon fill="none" stroke="black" points="774.202,-795.212 763.615,-794.822 771.648,-801.729 774.202,-795.212"/>
</g>
<!-- \\TBela\\CSS\\Value\\Separator -->
<g id="node11" class="node"><title>\\TBela\\CSS\\Value\\Separator</title>
<polygon fill="none" stroke="black" points="923.5,-590 846.5,-590 846.5,-554 923.5,-554 923.5,-590"/>
<text text-anchor="middle" x="885" y="-569.2" font-family="Courier,monospace" font-size="11.00">Separator</text>
</g>
<!-- \\TBela\\CSS\\Value\\Separator&#45;&gt;\\TBela\\CSS\\Value -->
<g id="edge18" class="edge"><title>\\TBela\\CSS\\Value\\Separator&#45;&gt;\\TBela\\CSS\\Value</title>
<path fill="none" stroke="black" d="M846.306,-589.81C841.051,-592.691 835.81,-595.789 831,-599 784.851,-629.805 781.23,-712.139 736,-680"/>
<path fill="none" stroke="black" d="M734,-680C543.578,-544.692 781.489,-345.152 634,-164 627.365,-155.85 618.68,-149.424 609.309,-144.364"/>
<polygon fill="none" stroke="black" points="610.684,-141.14 600.16,-139.918 607.625,-147.436 610.684,-141.14"/>
</g>
<!-- \\TBela\\CSS\\Value\\CssString -->
<g id="node12" class="node"><title>\\TBela\\CSS\\Value\\CssString</title>
<polygon fill="none" stroke="black" points="923.5,-806 846.5,-806 846.5,-770 923.5,-770 923.5,-806"/>
<text text-anchor="middle" x="885" y="-785.2" font-family="Courier,monospace" font-size="11.00">CssString</text>
</g>
<!-- \\TBela\\CSS\\Value\\CssString&#45;&gt;\\TBela\\CSS\\Value -->
<g id="edge20" class="edge"><title>\\TBela\\CSS\\Value\\CssString&#45;&gt;\\TBela\\CSS\\Value</title>
<path fill="none" stroke="black" d="M846.306,-770.19C841.051,-767.309 835.81,-764.211 831,-761 784.851,-730.195 781.23,-712.139 736,-680"/>
</g>
<!-- \\TBela\\CSS\\Value\\Whitespace -->
<g id="node13" class="node"><title>\\TBela\\CSS\\Value\\Whitespace</title>
<polygon fill="none" stroke="black" points="927,-752 843,-752 843,-716 927,-716 927,-752"/>
<text text-anchor="middle" x="885" y="-731.2" font-family="Courier,monospace" font-size="11.00">Whitespace</text>
</g>
<!-- \\TBela\\CSS\\Value\\Whitespace&#45;&gt;\\TBela\\CSS\\Value -->
<g id="edge21" class="edge"><title>\\TBela\\CSS\\Value\\Whitespace&#45;&gt;\\TBela\\CSS\\Value</title>
<path fill="none" stroke="black" d="M842.889,-725.304C811.516,-717.245 768.329,-702.972 736,-680"/>
</g>
<!-- \\TBela\\CSS\\Value\\Comment -->
<g id="node14" class="node"><title>\\TBela\\CSS\\Value\\Comment</title>
<polygon fill="none" stroke="black" points="917,-698 853,-698 853,-662 917,-662 917,-698"/>
<text text-anchor="middle" x="885" y="-677.2" font-family="Courier,monospace" font-size="11.00">Comment</text>
</g>
<!-- \\TBela\\CSS\\Value\\Comment&#45;&gt;\\TBela\\CSS\\Value -->
<g id="edge25" class="edge"><title>\\TBela\\CSS\\Value\\Comment&#45;&gt;\\TBela\\CSS\\Value</title>
<path fill="none" stroke="black" d="M852.814,-689.679C820.495,-697.666 770.036,-704.185 736,-680"/>
</g>
<!-- \\TBela\\CSS\\Element\\Declaration -->
<g id="node15" class="node"><title>\\TBela\\CSS\\Element\\Declaration</title>
<polygon fill="none" stroke="black" points="930.5,-1102 839.5,-1102 839.5,-1066 930.5,-1066 930.5,-1102"/>
<text text-anchor="middle" x="885" y="-1081.2" font-family="Courier,monospace" font-size="11.00">Declaration</text>
</g>
<!-- \\TBela\\CSS\\Element -->
<g id="node26" class="node"><title>\\TBela\\CSS\\Element</title>
<polygon fill="none" stroke="black" points="371.5,-266 286.5,-266 286.5,-230 371.5,-230 371.5,-266"/>
<text text-anchor="start" x="295" y="-251.7" font-family="Courier,monospace" font-size="11.00">«abstract»</text>
<text text-anchor="start" x="305" y="-240.7" font-family="Courier,monospace" font-size="11.00">Element</text>
</g>
<!-- \\TBela\\CSS\\Element\\Declaration&#45;&gt;\\TBela\\CSS\\Element -->
<g id="edge7" class="edge"><title>\\TBela\\CSS\\Element\\Declaration&#45;&gt;\\TBela\\CSS\\Element</title>
<path fill="none" stroke="black" d="M850.201,-1102.09C820.945,-1116.32 777.001,-1134.34 736,-1138"/>
<path fill="none" stroke="black" d="M734,-1138C469.376,-1161.63 538.742,-862.418 450,-612 398.639,-467.066 482.205,-391.951 386,-272 384.17,-269.718 382.081,-267.649 379.812,-265.773"/>
<polygon fill="none" stroke="black" points="381.745,-262.855 371.511,-260.114 377.802,-268.639 381.745,-262.855"/>
</g>
<!-- \\TBela\\CSS\\Element\\Rule -->
<g id="node16" class="node"><title>\\TBela\\CSS\\Element\\Rule</title>
<polygon fill="none" stroke="black" points="912,-1048 858,-1048 858,-1012 912,-1012 912,-1048"/>
<text text-anchor="middle" x="885" y="-1027.2" font-family="Courier,monospace" font-size="11.00">Rule</text>
</g>
<!-- \\TBela\\CSS\\Elements -->
<g id="node23" class="node"><title>\\TBela\\CSS\\Elements</title>
<polygon fill="none" stroke="black" points="577.5,-603 506.5,-603 506.5,-567 577.5,-567 577.5,-603"/>
<text text-anchor="middle" x="542" y="-582.2" font-family="Courier,monospace" font-size="11.00">Elements</text>
</g>
<!-- \\TBela\\CSS\\Element\\Rule&#45;&gt;\\TBela\\CSS\\Elements -->
<g id="edge11" class="edge"><title>\\TBela\\CSS\\Element\\Rule&#45;&gt;\\TBela\\CSS\\Elements</title>
<path fill="none" stroke="black" d="M857.693,-1028.74C818.147,-1025.47 743.209,-1013.79 698,-972 589.053,-871.304 555.2,-683.752 546.034,-612.991"/>
<polygon fill="none" stroke="black" points="549.505,-612.542 544.81,-603.044 542.557,-613.397 549.505,-612.542"/>
</g>
<!-- \\TBela\\CSS\\Element\\AtRule -->
<g id="node17" class="node"><title>\\TBela\\CSS\\Element\\AtRule</title>
<polygon fill="none" stroke="black" points="913.5,-994 856.5,-994 856.5,-958 913.5,-958 913.5,-994"/>
<text text-anchor="middle" x="885" y="-973.2" font-family="Courier,monospace" font-size="11.00">AtRule</text>
</g>
<!-- \\TBela\\CSS\\Elements\\Rules -->
<g id="node20" class="node"><title>\\TBela\\CSS\\Elements\\Rules</title>
<polygon fill="none" stroke="black" points="762,-940 708,-940 708,-904 762,-904 762,-940"/>
<text text-anchor="middle" x="735" y="-919.2" font-family="Courier,monospace" font-size="11.00">Rules</text>
</g>
<!-- \\TBela\\CSS\\Element\\AtRule&#45;&gt;\\TBela\\CSS\\Elements\\Rules -->
<g id="edge12" class="edge"><title>\\TBela\\CSS\\Element\\AtRule&#45;&gt;\\TBela\\CSS\\Elements\\Rules</title>
<path fill="none" stroke="black" d="M856.162,-965.843C832.254,-957.12 797.642,-944.491 771.7,-935.026"/>
<polygon fill="none" stroke="black" points="772.816,-931.707 762.222,-931.568 770.417,-938.283 772.816,-931.707"/>
</g>
<!-- \\TBela\\CSS\\Element\\Stylesheet -->
<g id="node18" class="node"><title>\\TBela\\CSS\\Element\\Stylesheet</title>
<polygon fill="none" stroke="black" points="927,-940 843,-940 843,-904 927,-904 927,-940"/>
<text text-anchor="middle" x="885" y="-919.2" font-family="Courier,monospace" font-size="11.00">Stylesheet</text>
</g>
<!-- \\TBela\\CSS\\Element\\Stylesheet&#45;&gt;\\TBela\\CSS\\Elements\\Rules -->
<g id="edge19" class="edge"><title>\\TBela\\CSS\\Element\\Stylesheet&#45;&gt;\\TBela\\CSS\\Elements\\Rules</title>
<path fill="none" stroke="black" d="M842.774,-922C820.677,-922 793.694,-922 772.382,-922"/>
<polygon fill="none" stroke="black" points="772.116,-918.5 762.116,-922 772.116,-925.5 772.116,-918.5"/>
</g>
<!-- \\TBela\\CSS\\Element\\Comment -->
<g id="node19" class="node"><title>\\TBela\\CSS\\Element\\Comment</title>
<polygon fill="none" stroke="black" points="917,-1156 853,-1156 853,-1120 917,-1120 917,-1156"/>
<text text-anchor="middle" x="885" y="-1135.2" font-family="Courier,monospace" font-size="11.00">Comment</text>
</g>
<!-- \\TBela\\CSS\\Element\\Comment&#45;&gt;\\TBela\\CSS\\Element -->
<g id="edge26" class="edge"><title>\\TBela\\CSS\\Element\\Comment&#45;&gt;\\TBela\\CSS\\Element</title>
<path fill="none" stroke="black" d="M852.961,-1144.55C822.095,-1149.58 773.994,-1153.36 736,-1138"/>
</g>
<!-- \\TBela\\CSS\\Elements\\Rules&#45;&gt;\\TBela\\CSS\\Elements -->
<g id="edge16" class="edge"><title>\\TBela\\CSS\\Elements\\Rules&#45;&gt;\\TBela\\CSS\\Elements</title>
<path fill="none" stroke="black" d="M709.467,-903.899C705.354,-900.232 701.342,-896.203 698,-892 625.234,-800.492 573.1,-669.358 552.608,-612.755"/>
<polygon fill="none" stroke="black" points="555.812,-611.32 549.152,-603.08 549.22,-613.674 555.812,-611.32"/>
</g>
<!-- \\TBela\\CSS\\Renderer -->
<g id="node21" class="node"><title>\\TBela\\CSS\\Renderer</title>
<polygon fill="none" stroke="black" points="920.5,-482 849.5,-482 849.5,-446 920.5,-446 920.5,-482"/>
<text text-anchor="middle" x="885" y="-461.2" font-family="Courier,monospace" font-size="11.00">Renderer</text>
</g>
<!-- \\TBela\\CSS\\Filter -->
<g id="node22" class="node"><title>\\TBela\\CSS\\Filter</title>
<polygon fill="none" stroke="black" points="913.5,-428 856.5,-428 856.5,-392 913.5,-392 913.5,-428"/>
<text text-anchor="middle" x="885" y="-407.2" font-family="Courier,monospace" font-size="11.00">Filter</text>
</g>
<!-- \\TBela\\CSS\\Elements&#45;&gt;\\TBela\\CSS\\Element -->
<g id="edge14" class="edge"><title>\\TBela\\CSS\\Elements&#45;&gt;\\TBela\\CSS\\Element</title>
<path fill="none" stroke="black" d="M536.743,-566.793C523.537,-514.08 478.481,-359.537 386,-272 384.152,-270.25 382.156,-268.618 380.057,-267.095"/>
<polygon fill="none" stroke="black" points="381.874,-264.103 371.542,-261.757 378.155,-270.034 381.874,-264.103"/>
</g>
<!-- \\TBela\\CSS\\RuleList -->
<g id="node28" class="node"><title>\\TBela\\CSS\\RuleList</title>
<polygon fill="none" stroke="black" points="364.5,-212 293.5,-212 293.5,-176 364.5,-176 364.5,-212"/>
<text text-anchor="middle" x="329" y="-191.2" font-family="Courier,monospace" font-size="11.00">RuleList</text>
</g>
<!-- \\TBela\\CSS\\Elements&#45;&gt;\\TBela\\CSS\\RuleList -->
<g id="edge15" class="edge"><title>\\TBela\\CSS\\Elements&#45;&gt;\\TBela\\CSS\\RuleList</title>
<path fill="none" stroke="black" stroke-dasharray="1,5" d="M537.899,-566.599C527.235,-508.543 487.006,-326.836 386,-221 382.367,-217.194 378.087,-213.858 373.538,-210.951"/>
<polygon fill="none" stroke="black" points="374.987,-207.75 364.559,-205.881 371.545,-213.845 374.987,-207.75"/>
</g>
<!-- \\TBela\\CSS\\Compiler -->
<g id="node24" class="node"><title>\\TBela\\CSS\\Compiler</title>
<polygon fill="none" stroke="black" points="920.5,-374 849.5,-374 849.5,-338 920.5,-338 920.5,-374"/>
<text text-anchor="middle" x="885" y="-353.2" font-family="Courier,monospace" font-size="11.00">Compiler</text>
</g>
<!-- \\TBela\\CSS\\Parser -->
<g id="node25" class="node"><title>\\TBela\\CSS\\Parser</title>
<polygon fill="none" stroke="black" points="913.5,-320 856.5,-320 856.5,-284 913.5,-284 913.5,-320"/>
<text text-anchor="middle" x="885" y="-299.2" font-family="Courier,monospace" font-size="11.00">Parser</text>
</g>
<!-- \\TBela\\CSS\\Element&#45;&gt;\\JsonSerializable -->
<g id="edge22" class="edge"><title>\\TBela\\CSS\\Element&#45;&gt;\\JsonSerializable</title>
<path fill="none" stroke="black" stroke-dasharray="1,5" d="M289.969,-229.957C286.326,-227.281 282.911,-224.297 280,-221 224.059,-157.649 271.222,-101.086 208,-45 202.509,-40.1287 196.215,-36.1276 189.524,-32.8425"/>
<polygon fill="none" stroke="black" points="190.76,-29.5632 180.193,-28.7921 187.972,-35.9844 190.76,-29.5632"/>
</g>
<!-- \\TBela\\CSS\\Element&#45;&gt;\\ArrayAccess -->
<g id="edge23" class="edge"><title>\\TBela\\CSS\\Element&#45;&gt;\\ArrayAccess</title>
<path fill="none" stroke="black" stroke-dasharray="1,5" d="M294.283,-229.924C289.415,-227.06 284.525,-224.037 280,-221 246.109,-198.258 243.424,-184.272 208,-164 194.358,-156.193 178.802,-149.338 164.164,-143.678"/>
<polygon fill="none" stroke="black" points="165.3,-140.366 154.707,-140.133 162.843,-146.92 165.3,-140.366"/>
</g>
<!-- \\TBela\\CSS\\Element&#45;&gt;\\TBela\\CSS\\Rendererable -->
<g id="edge24" class="edge"><title>\\TBela\\CSS\\Element&#45;&gt;\\TBela\\CSS\\Rendererable</title>
<path fill="none" stroke="black" stroke-dasharray="1,5" d="M286.483,-248.381C253.058,-248.688 205.677,-249.122 168.423,-249.464"/>
<polygon fill="none" stroke="black" points="168.171,-245.966 158.204,-249.558 168.236,-252.966 168.171,-245.966"/>
</g>
<!-- \\TBela\\CSS\\RuleList&#45;&gt;\\IteratorAggregate -->
<g id="edge27" class="edge"><title>\\TBela\\CSS\\RuleList&#45;&gt;\\IteratorAggregate</title>
<path fill="none" stroke="black" d="M310.112,-175.956C287.987,-154.617 248.289,-119.427 208,-99 200.28,-95.0861 191.922,-91.6809 183.453,-88.7332"/>
<polygon fill="none" stroke="black" points="184.464,-85.3816 173.872,-85.5967 182.286,-92.0342 184.464,-85.3816"/>
</g>
<!-- \\TBela\\CSS\\ArrayTrait -->
<g id="node29" class="node"><title>\\TBela\\CSS\\ArrayTrait</title>
<polygon fill="none" stroke="black" points="927,-266 843,-266 843,-230 927,-230 927,-266"/>
<text text-anchor="middle" x="885" y="-245.2" font-family="Courier,monospace" font-size="11.00">ArrayTrait</text>
</g>
<!-- \\TBela\\CSS\\ElementTrait -->
<g id="node30" class="node"><title>\\TBela\\CSS\\ElementTrait</title>
<polygon fill="none" stroke="black" points="934,-212 836,-212 836,-176 934,-176 934,-212"/>
<text text-anchor="middle" x="885" y="-191.2" font-family="Courier,monospace" font-size="11.00">ElementTrait</text>
</g>
</g>
</svg>
