<?xml version="1.0" encoding="UTF-8" standalone="no"?>
<!DOCTYPE svg PUBLIC "-//W3C//DTD SVG 1.1//EN"
 "http://www.w3.org/Graphics/SVG/1.1/DTD/svg11.dtd">
<!-- Generated by graphviz version 2.30.1 (20180420.1509)
 -->
<!-- Title: G Pages: 1 -->
<svg width="1210pt" height="2313pt"
 viewBox="0.00 0.00 1210.00 2312.71" xmlns="http://www.w3.org/2000/svg" xmlns:xlink="http://www.w3.org/1999/xlink">
<g id="graph0" class="graph" transform="scale(1 1) rotate(0) translate(4 2308.71)">
<title>G</title>
<polygon fill="white" stroke="white" points="-4,5 -4,-2308.71 1207,-2308.71 1207,5 -4,5"/>
<g id="clust1" class="cluster"><title>cluster_Global</title>
<path fill="none" stroke="gray" d="M20,-140.712C20,-140.712 1182,-140.712 1182,-140.712 1188,-140.712 1194,-146.712 1194,-152.712 1194,-152.712 1194,-2284.71 1194,-2284.71 1194,-2290.71 1188,-2296.71 1182,-2296.71 1182,-2296.71 20,-2296.71 20,-2296.71 14,-2296.71 8,-2290.71 8,-2284.71 8,-2284.71 8,-152.712 8,-152.712 8,-146.712 14,-140.712 20,-140.712"/>
<text text-anchor="middle" x="601" y="-2283.91" font-family="Times,serif" font-size="11.00" fill="gray">Global</text>
</g>
<g id="clust2" class="cluster"><title>cluster_\TBela</title>
<path fill="none" stroke="gray" d="M268,-148.712C268,-148.712 1174,-148.712 1174,-148.712 1180,-148.712 1186,-154.712 1186,-160.712 1186,-160.712 1186,-1942.71 1186,-1942.71 1186,-1948.71 1180,-1954.71 1174,-1954.71 1174,-1954.71 268,-1954.71 268,-1954.71 262,-1954.71 256,-1948.71 256,-1942.71 256,-1942.71 256,-160.712 256,-160.712 256,-154.712 262,-148.712 268,-148.712"/>
<text text-anchor="middle" x="721" y="-1941.91" font-family="Times,serif" font-size="11.00" fill="gray">TBela</text>
</g>
<g id="clust3" class="cluster"><title>cluster_\TBela\CSS</title>
<path fill="none" stroke="gray" d="M276,-156.712C276,-156.712 1166,-156.712 1166,-156.712 1172,-156.712 1178,-162.712 1178,-168.712 1178,-168.712 1178,-1914.71 1178,-1914.71 1178,-1920.71 1172,-1926.71 1166,-1926.71 1166,-1926.71 276,-1926.71 276,-1926.71 270,-1926.71 264,-1920.71 264,-1914.71 264,-1914.71 264,-168.712 264,-168.712 264,-162.712 270,-156.712 276,-156.712"/>
<text text-anchor="middle" x="721" y="-1913.91" font-family="Times,serif" font-size="11.00" fill="gray">CSS</text>
</g>
<g id="clust4" class="cluster"><title>cluster_\TBela\CSS\Property</title>
<path fill="none" stroke="gray" d="M567,-1745.71C567,-1745.71 623,-1745.71 623,-1745.71 629,-1745.71 635,-1751.71 635,-1757.71 635,-1757.71 635,-1859.71 635,-1859.71 635,-1865.71 629,-1871.71 623,-1871.71 623,-1871.71 567,-1871.71 567,-1871.71 561,-1871.71 555,-1865.71 555,-1859.71 555,-1859.71 555,-1757.71 555,-1757.71 555,-1751.71 561,-1745.71 567,-1745.71"/>
<text text-anchor="middle" x="595" y="-1858.91" font-family="Times,serif" font-size="11.00" fill="gray">Property</text>
</g>
<g id="clust5" class="cluster"><title>cluster_\TBela\CSS\Value</title>
<path fill="none" stroke="gray" d="M775,-990.712C775,-990.712 1158,-990.712 1158,-990.712 1164,-990.712 1170,-996.712 1170,-1002.71 1170,-1002.71 1170,-1644.71 1170,-1644.71 1170,-1650.71 1164,-1656.71 1158,-1656.71 1158,-1656.71 775,-1656.71 775,-1656.71 769,-1656.71 763,-1650.71 763,-1644.71 763,-1644.71 763,-1002.71 763,-1002.71 763,-996.712 769,-990.712 775,-990.712"/>
<text text-anchor="middle" x="966.5" y="-1643.91" font-family="Times,serif" font-size="11.00" fill="gray">Value</text>
</g>
<g id="clust6" class="cluster"><title>cluster_\TBela\CSS\Query</title>
<path fill="none" stroke="gray" d="M714,-640.712C714,-640.712 1151,-640.712 1151,-640.712 1157,-640.712 1163,-646.712 1163,-652.712 1163,-652.712 1163,-970.712 1163,-970.712 1163,-976.712 1157,-982.712 1151,-982.712 1151,-982.712 714,-982.712 714,-982.712 708,-982.712 702,-976.712 702,-970.712 702,-970.712 702,-652.712 702,-652.712 702,-646.712 708,-640.712 714,-640.712"/>
<text text-anchor="middle" x="932.5" y="-969.912" font-family="Times,serif" font-size="11.00" fill="gray">Query</text>
</g>
<g id="clust7" class="cluster"><title>cluster_\TBela\CSS\Parser</title>
<path fill="none" stroke="gray" d="M1030,-1664.71C1030,-1664.71 1114,-1664.71 1114,-1664.71 1120,-1664.71 1126,-1670.71 1126,-1676.71 1126,-1676.71 1126,-1886.71 1126,-1886.71 1126,-1892.71 1120,-1898.71 1114,-1898.71 1114,-1898.71 1030,-1898.71 1030,-1898.71 1024,-1898.71 1018,-1892.71 1018,-1886.71 1018,-1886.71 1018,-1676.71 1018,-1676.71 1018,-1670.71 1024,-1664.71 1030,-1664.71"/>
<text text-anchor="middle" x="1072" y="-1885.91" font-family="Times,serif" font-size="11.00" fill="gray">Parser</text>
</g>
<g id="clust8" class="cluster"><title>cluster_\TBela\CSS\Element</title>
<path fill="none" stroke="gray" d="M771,-344.712C771,-344.712 1114,-344.712 1114,-344.712 1120,-344.712 1126,-350.712 1126,-356.712 1126,-356.712 1126,-620.712 1126,-620.712 1126,-626.712 1120,-632.712 1114,-632.712 1114,-632.712 771,-632.712 771,-632.712 765,-632.712 759,-626.712 759,-620.712 759,-620.712 759,-356.712 759,-356.712 759,-350.712 765,-344.712 771,-344.712"/>
<text text-anchor="middle" x="942.5" y="-619.912" font-family="Times,serif" font-size="11.00" fill="gray">Element</text>
</g>
<g id="clust9" class="cluster"><title>cluster_\TBela\CSS\Interfaces</title>
<path fill="none" stroke="gray" d="M284,-1718.71C284,-1718.71 476,-1718.71 476,-1718.71 482,-1718.71 488,-1724.71 488,-1730.71 488,-1730.71 488,-1886.71 488,-1886.71 488,-1892.71 482,-1898.71 476,-1898.71 476,-1898.71 284,-1898.71 284,-1898.71 278,-1898.71 272,-1892.71 272,-1886.71 272,-1886.71 272,-1730.71 272,-1730.71 272,-1724.71 278,-1718.71 284,-1718.71"/>
<text text-anchor="middle" x="380" y="-1885.91" font-family="Times,serif" font-size="11.00" fill="gray">Interfaces</text>
</g>
<g id="clust10" class="cluster"><title>cluster_\TBela\CSS\Event</title>
<path fill="none" stroke="gray" d="M758,-264.712C758,-264.712 1095,-264.712 1095,-264.712 1101,-264.712 1107,-270.712 1107,-276.712 1107,-276.712 1107,-324.712 1107,-324.712 1107,-330.712 1101,-336.712 1095,-336.712 1095,-336.712 758,-336.712 758,-336.712 752,-336.712 746,-330.712 746,-324.712 746,-324.712 746,-276.712 746,-276.712 746,-270.712 752,-264.712 758,-264.712"/>
<text text-anchor="middle" x="926.5" y="-323.912" font-family="Times,serif" font-size="11.00" fill="gray">Event</text>
</g>
<g id="clust11" class="cluster"><title>cluster_Global\TBela</title>
<path fill="none" stroke="gray" d="M728,-2080.71C728,-2080.71 892,-2080.71 892,-2080.71 898,-2080.71 904,-2086.71 904,-2092.71 904,-2092.71 904,-2212.71 904,-2212.71 904,-2218.71 898,-2224.71 892,-2224.71 892,-2224.71 728,-2224.71 728,-2224.71 722,-2224.71 716,-2218.71 716,-2212.71 716,-2212.71 716,-2092.71 716,-2092.71 716,-2086.71 722,-2080.71 728,-2080.71"/>
<text text-anchor="middle" x="810" y="-2211.91" font-family="Times,serif" font-size="11.00" fill="gray">TBela</text>
</g>
<g id="clust12" class="cluster"><title>cluster_Global\TBela\CSS</title>
<path fill="none" stroke="gray" d="M736,-2088.71C736,-2088.71 884,-2088.71 884,-2088.71 890,-2088.71 896,-2094.71 896,-2100.71 896,-2100.71 896,-2184.71 896,-2184.71 896,-2190.71 890,-2196.71 884,-2196.71 884,-2196.71 736,-2196.71 736,-2196.71 730,-2196.71 724,-2190.71 724,-2184.71 724,-2184.71 724,-2100.71 724,-2100.71 724,-2094.71 730,-2088.71 736,-2088.71"/>
<text text-anchor="middle" x="810" y="-2183.91" font-family="Times,serif" font-size="11.00" fill="gray">CSS</text>
</g>
<g id="clust13" class="cluster"><title>cluster_Global\TBela\CSS\Value</title>
<path fill="none" stroke="gray" d="M744,-2096.71C744,-2096.71 876,-2096.71 876,-2096.71 882,-2096.71 888,-2102.71 888,-2108.71 888,-2108.71 888,-2156.71 888,-2156.71 888,-2162.71 882,-2168.71 876,-2168.71 876,-2168.71 744,-2168.71 744,-2168.71 738,-2168.71 732,-2162.71 732,-2156.71 732,-2156.71 732,-2108.71 732,-2108.71 732,-2102.71 738,-2096.71 744,-2096.71"/>
<text text-anchor="middle" x="810" y="-2155.91" font-family="Times,serif" font-size="11.00" fill="gray">Value</text>
</g>
<!-- \\TBela\\CSS\\Property\\Comment -->
<g id="node1" class="node"><title>\\TBela\\CSS\\Property\\Comment</title>
<polygon fill="none" stroke="black" points="627,-1843.71 563,-1843.71 563,-1807.71 627,-1807.71 627,-1843.71"/>
<text text-anchor="middle" x="595" y="-1822.91" font-family="Courier,monospace" font-size="11.00">Comment</text>
</g>
<!-- ArrayAccess -->
<g id="node44" class="node"><title>ArrayAccess</title>
<ellipse fill="none" stroke="black" cx="380" cy="-1980.71" rx="69.5877" ry="18"/>
<text text-anchor="middle" x="380" y="-1977.01" font-family="Times,serif" font-size="14.00" fill="gray">ArrayAccess</text>
</g>
<!-- \\TBela\\CSS\\Property\\Comment&#45;&gt;ArrayAccess -->
<g id="edge1" class="edge"><title>\\TBela\\CSS\\Property\\Comment&#45;&gt;ArrayAccess</title>
<path fill="none" stroke="black" stroke-dasharray="1,5" d="M562.796,-1841.03C559.083,-1843.15 555.406,-1845.4 552,-1847.71 520.966,-1868.77 517.399,-1879.42 488,-1902.71 463.61,-1922.03 435.1,-1942.73 413.644,-1957.94"/>
<polygon fill="none" stroke="black" points="411.356,-1955.27 405.207,-1963.9 415.394,-1960.99 411.356,-1955.27"/>
</g>
<!-- \\TBela\\CSS\\Interfaces\\RenderableInterface -->
<g id="node36" class="node"><title>\\TBela\\CSS\\Interfaces\\RenderableInterface</title>
<polygon fill="none" stroke="black" points="452.5,-1816.71 307.5,-1816.71 307.5,-1780.71 452.5,-1780.71 452.5,-1816.71"/>
<text text-anchor="middle" x="380" y="-1795.91" font-family="Courier,monospace" font-size="11.00">RenderableInterface</text>
</g>
<!-- \\TBela\\CSS\\Property\\Comment&#45;&gt;\\TBela\\CSS\\Interfaces\\RenderableInterface -->
<g id="edge2" class="edge"><title>\\TBela\\CSS\\Property\\Comment&#45;&gt;\\TBela\\CSS\\Interfaces\\RenderableInterface</title>
<path fill="none" stroke="black" stroke-dasharray="1,5" d="M562.571,-1821.73C536.345,-1818.4 497.762,-1813.51 462.899,-1809.09"/>
<polygon fill="none" stroke="black" points="463.06,-1805.59 452.699,-1807.8 462.18,-1812.53 463.06,-1805.59"/>
</g>
<!-- \\TBela\\CSS\\Property\\Config -->
<g id="node2" class="node"><title>\\TBela\\CSS\\Property\\Config</title>
<polygon fill="none" stroke="black" points="623.5,-1789.71 566.5,-1789.71 566.5,-1753.71 623.5,-1753.71 623.5,-1789.71"/>
<text text-anchor="middle" x="595" y="-1768.91" font-family="Courier,monospace" font-size="11.00">Config</text>
</g>
<!-- \\TBela\\CSS\\Value\\Number -->
<g id="node3" class="node"><title>\\TBela\\CSS\\Value\\Number</title>
<polygon fill="none" stroke="black" points="838.5,-1250.71 781.5,-1250.71 781.5,-1214.71 838.5,-1214.71 838.5,-1250.71"/>
<text text-anchor="middle" x="810" y="-1229.91" font-family="Courier,monospace" font-size="11.00">Number</text>
</g>
<!-- Value -->
<g id="node49" class="node"><title>Value</title>
<ellipse fill="none" stroke="black" cx="595" cy="-114.712" rx="36.2938" ry="18"/>
<text text-anchor="middle" x="595" y="-111.012" font-family="Times,serif" font-size="14.00">Value</text>
</g>
<!-- \\TBela\\CSS\\Value\\Number&#45;&gt;Value -->
<g id="edge3" class="edge"><title>\\TBela\\CSS\\Value\\Number&#45;&gt;Value</title>
<path fill="none" stroke="black" d="M798.603,-1214.63C776.342,-1174.92 724.283,-1076.43 702,-986.712 657.197,-806.314 719.849,-319.599 638,-152.712 634.916,-146.424 630.298,-140.694 625.237,-135.698"/>
<polygon fill="none" stroke="black" points="627.428,-132.962 617.634,-128.923 622.772,-138.189 627.428,-132.962"/>
</g>
<!-- \\TBela\\CSS\\Value\\CSSFunction -->
<g id="node4" class="node"><title>\\TBela\\CSS\\Value\\CSSFunction</title>
<polygon fill="none" stroke="black" points="1117.5,-1412.71 1026.5,-1412.71 1026.5,-1376.71 1117.5,-1376.71 1117.5,-1412.71"/>
<text text-anchor="middle" x="1072" y="-1391.91" font-family="Courier,monospace" font-size="11.00">CSSFunction</text>
</g>
<!-- \\TBela\\CSS\\Value\\CSSFunction&#45;&gt;Value -->
<g id="edge4" class="edge"><title>\\TBela\\CSS\\Value\\CSSFunction&#45;&gt;Value</title>
<path fill="none" stroke="black" d="M1026.1,-1391.58C1009.72,-1388.05 992.637,-1381.12 982,-1367.71 828.799,-1174.58 1049.25,-464.138 910,-260.712 876.973,-212.463 712.85,-153.244 635.921,-127.582"/>
<polygon fill="none" stroke="black" points="636.699,-124.153 626.106,-124.332 634.499,-130.798 636.699,-124.153"/>
</g>
<!-- \\TBela\\CSS\\Value\\Set -->
<g id="node5" class="node"><title>\\TBela\\CSS\\Value\\Set</title>
<polygon fill="none" stroke="black" points="1099,-1574.71 1045,-1574.71 1045,-1538.71 1099,-1538.71 1099,-1574.71"/>
<text text-anchor="middle" x="1072" y="-1553.91" font-family="Courier,monospace" font-size="11.00">Set</text>
</g>
<!-- IteratorAggregate -->
<g id="node45" class="node"><title>IteratorAggregate</title>
<ellipse fill="none" stroke="black" cx="112" cy="-1880.71" rx="96.3833" ry="18"/>
<text text-anchor="middle" x="112" y="-1877.01" font-family="Times,serif" font-size="14.00" fill="gray">IteratorAggregate</text>
</g>
<!-- \\TBela\\CSS\\Value\\Set&#45;&gt;IteratorAggregate -->
<g id="edge5" class="edge"><title>\\TBela\\CSS\\Value\\Set&#45;&gt;IteratorAggregate</title>
<path fill="none" stroke="black" stroke-dasharray="1,5" d="M1044.87,-1557.54C1024.71,-1559.64 997.691,-1565.9 982,-1583.71 855.644,-1727.13 1056.03,-1884.39 910,-2007.71 882.241,-2031.15 289.964,-2020.62 256,-2007.71 202.945,-1987.55 156.988,-1937.7 132.302,-1906.79"/>
<polygon fill="none" stroke="black" points="134.83,-1904.34 125.916,-1898.61 129.314,-1908.65 134.83,-1904.34"/>
</g>
<!-- JsonSerializable -->
<g id="node46" class="node"><title>JsonSerializable</title>
<ellipse fill="none" stroke="black" cx="810" cy="-2054.71" rx="85.2851" ry="18"/>
<text text-anchor="middle" x="810" y="-2051.01" font-family="Times,serif" font-size="14.00" fill="gray">JsonSerializable</text>
</g>
<!-- \\TBela\\CSS\\Value\\Set&#45;&gt;JsonSerializable -->
<g id="edge6" class="edge"><title>\\TBela\\CSS\\Value\\Set&#45;&gt;JsonSerializable</title>
<path fill="none" stroke="black" stroke-dasharray="1,5" d="M1044.84,-1557.52C1024.66,-1559.61 997.64,-1565.86 982,-1583.71 851.716,-1732.43 1038.93,-1872.82 910,-2022.71 903.902,-2029.8 896.221,-2035.33 887.847,-2039.65"/>
<polygon fill="none" stroke="black" points="886.197,-2036.55 878.53,-2043.86 889.084,-2042.93 886.197,-2036.55"/>
</g>
<!-- Countable -->
<g id="node47" class="node"><title>Countable</title>
<ellipse fill="none" stroke="black" cx="810" cy="-1980.71" rx="58.4896" ry="18"/>
<text text-anchor="middle" x="810" y="-1977.01" font-family="Times,serif" font-size="14.00" fill="gray">Countable</text>
</g>
<!-- \\TBela\\CSS\\Value\\Set&#45;&gt;Countable -->
<g id="edge7" class="edge"><title>\\TBela\\CSS\\Value\\Set&#45;&gt;Countable</title>
<path fill="none" stroke="black" stroke-dasharray="1,5" d="M1044.76,-1558.8C1025.33,-1561.61 999.337,-1568.22 982,-1583.71 867.036,-1686.45 826.462,-1879.99 814.921,-1952.41"/>
<polygon fill="none" stroke="black" points="811.418,-1952.16 813.367,-1962.57 818.338,-1953.22 811.418,-1952.16"/>
</g>
<!-- \\TBela\\CSS\\Value\\OutlineColor -->
<g id="node6" class="node"><title>\\TBela\\CSS\\Value\\OutlineColor</title>
<polygon fill="none" stroke="black" points="1121,-1358.71 1023,-1358.71 1023,-1322.71 1121,-1322.71 1121,-1358.71"/>
<text text-anchor="middle" x="1072" y="-1337.91" font-family="Courier,monospace" font-size="11.00">OutlineColor</text>
</g>
<!-- Color -->
<g id="node51" class="node"><title>Color</title>
<ellipse fill="none" stroke="black" cx="810" cy="-114.712" rx="36.2938" ry="18"/>
<text text-anchor="middle" x="810" y="-111.012" font-family="Times,serif" font-size="14.00">Color</text>
</g>
<!-- \\TBela\\CSS\\Value\\OutlineColor&#45;&gt;Color -->
<g id="edge12" class="edge"><title>\\TBela\\CSS\\Value\\OutlineColor&#45;&gt;Color</title>
<path fill="none" stroke="black" d="M1022.84,-1336.84C1007.49,-1333.12 991.928,-1326.24 982,-1313.71 826.42,-1117.37 1029.31,-408.986 910,-188.712 896.077,-163.007 868.937,-143.705 846.59,-131.269"/>
<polygon fill="none" stroke="black" points="848.145,-128.132 837.673,-126.522 844.855,-134.311 848.145,-128.132"/>
</g>
<!-- \\TBela\\CSS\\Value\\FontFamily -->
<g id="node7" class="node"><title>\\TBela\\CSS\\Value\\FontFamily</title>
<polygon fill="none" stroke="black" points="1114,-1520.71 1030,-1520.71 1030,-1484.71 1114,-1484.71 1114,-1520.71"/>
<text text-anchor="middle" x="1072" y="-1499.91" font-family="Courier,monospace" font-size="11.00">FontFamily</text>
</g>
<!-- \\TBela\\CSS\\Value\\CssString -->
<g id="node12" class="node"><title>\\TBela\\CSS\\Value\\CssString</title>
<polygon fill="none" stroke="black" points="848.5,-1412.71 771.5,-1412.71 771.5,-1376.71 848.5,-1376.71 848.5,-1412.71"/>
<text text-anchor="middle" x="810" y="-1391.91" font-family="Courier,monospace" font-size="11.00">CssString</text>
</g>
<!-- \\TBela\\CSS\\Value\\FontFamily&#45;&gt;\\TBela\\CSS\\Value\\CssString -->
<g id="edge13" class="edge"><title>\\TBela\\CSS\\Value\\FontFamily&#45;&gt;\\TBela\\CSS\\Value\\CssString</title>
<path fill="none" stroke="black" d="M1029.8,-1493.83C1014.28,-1489.56 996.813,-1483.62 982,-1475.71 945.507,-1456.22 947.206,-1434.8 910,-1416.71 894.134,-1409 875.52,-1403.95 858.742,-1400.67"/>
<polygon fill="none" stroke="black" points="859.033,-1397.16 848.572,-1398.84 857.797,-1404.05 859.033,-1397.16"/>
</g>
<!-- \\TBela\\CSS\\Value\\Unit -->
<g id="node8" class="node"><title>\\TBela\\CSS\\Value\\Unit</title>
<polygon fill="none" stroke="black" points="1099,-1466.71 1045,-1466.71 1045,-1430.71 1099,-1430.71 1099,-1466.71"/>
<text text-anchor="middle" x="1072" y="-1445.91" font-family="Courier,monospace" font-size="11.00">Unit</text>
</g>
<!-- \\TBela\\CSS\\Value\\Unit&#45;&gt;\\TBela\\CSS\\Value\\Number -->
<g id="edge14" class="edge"><title>\\TBela\\CSS\\Value\\Unit&#45;&gt;\\TBela\\CSS\\Value\\Number</title>
<path fill="none" stroke="black" d="M1044.9,-1444.64C1026.28,-1440.85 1001.23,-1433.9 982,-1421.71 913.407,-1378.23 855.275,-1299.95 827.86,-1259.12"/>
<polygon fill="none" stroke="black" points="830.768,-1257.17 822.33,-1250.76 824.931,-1261.04 830.768,-1257.17"/>
</g>
<!-- \\TBela\\CSS\\Value\\CssAttribute -->
<g id="node9" class="node"><title>\\TBela\\CSS\\Value\\CssAttribute</title>
<polygon fill="none" stroke="black" points="1121,-1142.71 1023,-1142.71 1023,-1106.71 1121,-1106.71 1121,-1142.71"/>
<text text-anchor="middle" x="1072" y="-1121.91" font-family="Courier,monospace" font-size="11.00">CssAttribute</text>
</g>
<!-- \\TBela\\CSS\\Value\\CssAttribute&#45;&gt;Value -->
<g id="edge16" class="edge"><title>\\TBela\\CSS\\Value\\CssAttribute&#45;&gt;Value</title>
<path fill="none" stroke="black" d="M1022.89,-1120.8C1007.54,-1117.07 991.973,-1110.2 982,-1097.71 841.616,-921.86 1059.41,-255.959 910,-87.7118 880.25,-54.2117 848.861,-92.6665 811,-68.7118"/>
</g>
<!-- \\TBela\\CSS\\Value\\Separator -->
<g id="node10" class="node"><title>\\TBela\\CSS\\Value\\Separator</title>
<polygon fill="none" stroke="black" points="1110.5,-1304.71 1033.5,-1304.71 1033.5,-1268.71 1110.5,-1268.71 1110.5,-1304.71"/>
<text text-anchor="middle" x="1072" y="-1283.91" font-family="Courier,monospace" font-size="11.00">Separator</text>
</g>
<!-- \\TBela\\CSS\\Value\\Separator&#45;&gt;Value -->
<g id="edge19" class="edge"><title>\\TBela\\CSS\\Value\\Separator&#45;&gt;Value</title>
<path fill="none" stroke="black" d="M1033.41,-1284.97C1015,-1282.02 994.214,-1275.17 982,-1259.71 820.208,-1054.99 1082.31,-283.666 910,-87.7118 880.415,-54.0662 848.861,-92.6665 811,-68.7118"/>
</g>
<!-- \\TBela\\CSS\\Value\\CssParenthesisExpression -->
<g id="node11" class="node"><title>\\TBela\\CSS\\Value\\CssParenthesisExpression</title>
<polygon fill="none" stroke="black" points="1161.5,-1196.71 982.5,-1196.71 982.5,-1160.71 1161.5,-1160.71 1161.5,-1196.71"/>
<text text-anchor="middle" x="1072" y="-1175.91" font-family="Courier,monospace" font-size="11.00">CssParenthesisExpression</text>
</g>
<!-- \\TBela\\CSS\\Value\\CssParenthesisExpression&#45;&gt;Value -->
<g id="edge21" class="edge"><title>\\TBela\\CSS\\Value\\CssParenthesisExpression&#45;&gt;Value</title>
<path fill="none" stroke="black" d="M990.896,-1160.45C987.614,-1157.89 984.613,-1155 982,-1151.71 834.481,-966.239 1067.04,-265.193 910,-87.7118 880.311,-54.1582 848.861,-92.6665 811,-68.7118"/>
</g>
<!-- \\TBela\\CSS\\Value\\CssString&#45;&gt;Value -->
<g id="edge23" class="edge"><title>\\TBela\\CSS\\Value\\CssString&#45;&gt;Value</title>
<path fill="none" stroke="black" d="M788.359,-1376.59C762.808,-1352.71 720.419,-1308.06 702,-1259.71 614.279,-1029.44 744.415,-374.96 638,-152.712 634.976,-146.395 630.383,-140.652 625.33,-135.653"/>
<polygon fill="none" stroke="black" points="627.52,-132.916 617.725,-128.879 622.864,-138.144 627.52,-132.916"/>
</g>
<!-- \\TBela\\CSS\\Value\\Whitespace -->
<g id="node13" class="node"><title>\\TBela\\CSS\\Value\\Whitespace</title>
<polygon fill="none" stroke="black" points="1114,-1250.71 1030,-1250.71 1030,-1214.71 1114,-1214.71 1114,-1250.71"/>
<text text-anchor="middle" x="1072" y="-1229.91" font-family="Courier,monospace" font-size="11.00">Whitespace</text>
</g>
<!-- \\TBela\\CSS\\Value\\Whitespace&#45;&gt;Value -->
<g id="edge24" class="edge"><title>\\TBela\\CSS\\Value\\Whitespace&#45;&gt;Value</title>
<path fill="none" stroke="black" d="M1029.78,-1230.32C1012.33,-1227.07 993.435,-1220.14 982,-1205.71 827.345,-1010.62 1074.67,-274.429 910,-87.7118 880.365,-54.1099 848.861,-92.6665 811,-68.7118"/>
</g>
<!-- \\TBela\\CSS\\Value\\Comment -->
<g id="node14" class="node"><title>\\TBela\\CSS\\Value\\Comment</title>
<polygon fill="none" stroke="black" points="1104,-1088.71 1040,-1088.71 1040,-1052.71 1104,-1052.71 1104,-1088.71"/>
<text text-anchor="middle" x="1072" y="-1067.91" font-family="Courier,monospace" font-size="11.00">Comment</text>
</g>
<!-- \\TBela\\CSS\\Value\\Comment&#45;&gt;Value -->
<g id="edge25" class="edge"><title>\\TBela\\CSS\\Value\\Comment&#45;&gt;Value</title>
<path fill="none" stroke="black" d="M1039.72,-1069.77C1019.99,-1067.4 995.735,-1060.85 982,-1043.71 848.75,-877.48 1051.78,-246.727 910,-87.7118 880.183,-54.2713 848.861,-92.6665 811,-68.7118"/>
<path fill="none" stroke="black" d="M809,-68.7118C751.544,-32.3598 669.786,-69.7176 626.162,-95.2092"/>
<polygon fill="none" stroke="black" points="624.226,-92.2892 617.455,-100.438 627.83,-98.2904 624.226,-92.2892"/>
</g>
<!-- \\TBela\\CSS\\Value\\CssUrl -->
<g id="node15" class="node"><title>\\TBela\\CSS\\Value\\CssUrl</title>
<polygon fill="none" stroke="black" points="1100.5,-1628.71 1043.5,-1628.71 1043.5,-1592.71 1100.5,-1592.71 1100.5,-1628.71"/>
<text text-anchor="middle" x="1072" y="-1607.91" font-family="Courier,monospace" font-size="11.00">CssUrl</text>
</g>
<!-- CssFunction -->
<g id="node43" class="node"><title>CssFunction</title>
<ellipse fill="none" stroke="black" cx="810" cy="-2122.71" rx="69.5877" ry="18"/>
<text text-anchor="middle" x="810" y="-2119.01" font-family="Times,serif" font-size="14.00" fill="gray">CssFunction</text>
</g>
<!-- \\TBela\\CSS\\Value\\CssUrl&#45;&gt;CssFunction -->
<g id="edge26" class="edge"><title>\\TBela\\CSS\\Value\\CssUrl&#45;&gt;CssFunction</title>
<path fill="none" stroke="black" d="M1043.2,-1619.04C1022.96,-1626.6 996.632,-1639.8 982,-1660.71 868.39,-1823.07 1046.11,-1956.69 910,-2100.71 903.805,-2107.27 896.126,-2112.08 887.805,-2115.58"/>
<polygon fill="none" stroke="black" points="886.429,-2112.36 878.181,-2119.01 888.776,-2118.95 886.429,-2112.36"/>
</g>
<!-- \\TBela\\CSS\\Value\\ValueTrait -->
<g id="node16" class="node"><title>\\TBela\\CSS\\Value\\ValueTrait</title>
<polygon fill="none" stroke="black" points="1114,-1034.71 1030,-1034.71 1030,-998.712 1114,-998.712 1114,-1034.71"/>
<text text-anchor="middle" x="1072" y="-1013.91" font-family="Courier,monospace" font-size="11.00">ValueTrait</text>
</g>
<!-- \\TBela\\CSS\\Query\\Evaluator -->
<g id="node17" class="node"><title>\\TBela\\CSS\\Query\\Evaluator</title>
<polygon fill="none" stroke="black" points="1110.5,-954.712 1033.5,-954.712 1033.5,-918.712 1110.5,-918.712 1110.5,-954.712"/>
<text text-anchor="middle" x="1072" y="-933.912" font-family="Courier,monospace" font-size="11.00">Evaluator</text>
</g>
<!-- \\TBela\\CSS\\Query\\Token -->
<g id="node18" class="node"><title>\\TBela\\CSS\\Query\\Token</title>
<polygon fill="none" stroke="black" points="1114.5,-846.712 1029.5,-846.712 1029.5,-810.712 1114.5,-810.712 1114.5,-846.712"/>
<text text-anchor="start" x="1038" y="-832.412" font-family="Courier,monospace" font-size="11.00">«abstract»</text>
<text text-anchor="start" x="1055" y="-821.412" font-family="Courier,monospace" font-size="11.00">Token</text>
</g>
<!-- \\TBela\\CSS\\Query\\TokenInterface -->
<g id="node20" class="node"><title>\\TBela\\CSS\\Query\\TokenInterface</title>
<polygon fill="none" stroke="black" points="865.5,-738.712 754.5,-738.712 754.5,-702.712 865.5,-702.712 865.5,-738.712"/>
<text text-anchor="middle" x="810" y="-717.912" font-family="Courier,monospace" font-size="11.00">TokenInterface</text>
</g>
<!-- \\TBela\\CSS\\Query\\Token&#45;&gt;\\TBela\\CSS\\Query\\TokenInterface -->
<g id="edge15" class="edge"><title>\\TBela\\CSS\\Query\\Token&#45;&gt;\\TBela\\CSS\\Query\\TokenInterface</title>
<path fill="none" stroke="black" stroke-dasharray="1,5" d="M1029.36,-817.464C1014.28,-813.027 997.214,-807.586 982,-801.712 937.602,-784.57 888.689,-760.888 854.591,-743.558"/>
<polygon fill="none" stroke="black" points="855.879,-740.286 845.382,-738.849 852.692,-746.518 855.879,-740.286"/>
</g>
<!-- \\TBela\\CSS\\Query\\TokenSelectorValue -->
<g id="node19" class="node"><title>\\TBela\\CSS\\Query\\TokenSelectorValue</title>
<polygon fill="none" stroke="black" points="1141.5,-900.712 1002.5,-900.712 1002.5,-864.712 1141.5,-864.712 1141.5,-900.712"/>
<text text-anchor="start" x="1038" y="-886.412" font-family="Courier,monospace" font-size="11.00">«abstract»</text>
<text text-anchor="start" x="1011" y="-875.412" font-family="Courier,monospace" font-size="11.00">TokenSelectorValue</text>
</g>
<!-- \\TBela\\CSS\\Query\\TokenSelectorValueInterface -->
<g id="node21" class="node"><title>\\TBela\\CSS\\Query\\TokenSelectorValueInterface</title>
<polygon fill="none" stroke="black" points="909.5,-900.712 710.5,-900.712 710.5,-864.712 909.5,-864.712 909.5,-900.712"/>
<text text-anchor="middle" x="810" y="-879.912" font-family="Courier,monospace" font-size="11.00">TokenSelectorValueInterface</text>
</g>
<!-- \\TBela\\CSS\\Query\\TokenSelectorValue&#45;&gt;\\TBela\\CSS\\Query\\TokenSelectorValueInterface -->
<g id="edge17" class="edge"><title>\\TBela\\CSS\\Query\\TokenSelectorValue&#45;&gt;\\TBela\\CSS\\Query\\TokenSelectorValueInterface</title>
<path fill="none" stroke="black" stroke-dasharray="1,5" d="M1002.35,-882.712C977.157,-882.712 947.978,-882.712 920.114,-882.712"/>
<polygon fill="none" stroke="black" points="919.918,-879.212 909.918,-882.712 919.918,-886.212 919.918,-879.212"/>
</g>
<!-- \\TBela\\CSS\\Query\\QueryInterface -->
<g id="node22" class="node"><title>\\TBela\\CSS\\Query\\QueryInterface</title>
<polygon fill="none" stroke="black" points="1127.5,-792.712 1016.5,-792.712 1016.5,-756.712 1127.5,-756.712 1127.5,-792.712"/>
<text text-anchor="middle" x="1072" y="-771.912" font-family="Courier,monospace" font-size="11.00">QueryInterface</text>
</g>
<!-- \\TBela\\CSS\\Query\\TokenSelectInterface -->
<g id="node23" class="node"><title>\\TBela\\CSS\\Query\\TokenSelectInterface</title>
<polygon fill="none" stroke="black" points="1148,-738.712 996,-738.712 996,-702.712 1148,-702.712 1148,-738.712"/>
<text text-anchor="middle" x="1072" y="-717.912" font-family="Courier,monospace" font-size="11.00">TokenSelectInterface</text>
</g>
<!-- \\TBela\\CSS\\Query\\TokenSelectInterface&#45;&gt;\\TBela\\CSS\\Query\\TokenInterface -->
<g id="edge30" class="edge"><title>\\TBela\\CSS\\Query\\TokenSelectInterface&#45;&gt;\\TBela\\CSS\\Query\\TokenInterface</title>
<path fill="none" stroke="black" d="M995.797,-720.712C957.824,-720.712 912.215,-720.712 875.81,-720.712"/>
<polygon fill="none" stroke="black" points="875.799,-717.212 865.799,-720.712 875.799,-724.212 875.799,-717.212"/>
</g>
<!-- \\TBela\\CSS\\Query\\TokenSelectorInterface -->
<g id="node24" class="node"><title>\\TBela\\CSS\\Query\\TokenSelectorInterface</title>
<polygon fill="none" stroke="black" points="1154.5,-684.712 989.5,-684.712 989.5,-648.712 1154.5,-648.712 1154.5,-684.712"/>
<text text-anchor="middle" x="1072" y="-663.912" font-family="Courier,monospace" font-size="11.00">TokenSelectorInterface</text>
</g>
<!-- \\TBela\\CSS\\Query\\TokenSelectorInterface&#45;&gt;\\TBela\\CSS\\Query\\TokenInterface -->
<g id="edge31" class="edge"><title>\\TBela\\CSS\\Query\\TokenSelectorInterface&#45;&gt;\\TBela\\CSS\\Query\\TokenInterface</title>
<path fill="none" stroke="black" d="M989.448,-683.65C952.715,-691.279 909.96,-700.158 875.511,-707.313"/>
<polygon fill="none" stroke="black" points="874.644,-703.919 865.565,-709.379 876.068,-710.772 874.644,-703.919"/>
</g>
<!-- \\TBela\\CSS\\Parser\\SyntaxError -->
<g id="node25" class="node"><title>\\TBela\\CSS\\Parser\\SyntaxError</title>
<polygon fill="none" stroke="black" points="1117.5,-1870.71 1026.5,-1870.71 1026.5,-1834.71 1117.5,-1834.71 1117.5,-1870.71"/>
<text text-anchor="middle" x="1072" y="-1849.91" font-family="Courier,monospace" font-size="11.00">SyntaxError</text>
</g>
<!-- Exception -->
<g id="node48" class="node"><title>Exception</title>
<ellipse fill="none" stroke="black" cx="810" cy="-2250.71" rx="57.6901" ry="18"/>
<text text-anchor="middle" x="810" y="-2247.01" font-family="Times,serif" font-size="14.00" fill="gray">Exception</text>
</g>
<!-- \\TBela\\CSS\\Parser\\SyntaxError&#45;&gt;Exception -->
<g id="edge8" class="edge"><title>\\TBela\\CSS\\Parser\\SyntaxError&#45;&gt;Exception</title>
<path fill="none" stroke="black" d="M1065.03,-1870.93C1047.5,-1922.46 992.216,-2072.04 910,-2172.71 891.834,-2194.96 866.273,-2214.89 845.674,-2229.04"/>
<polygon fill="none" stroke="black" points="843.537,-2226.26 837.186,-2234.74 847.439,-2232.07 843.537,-2226.26"/>
</g>
<!-- \\TBela\\CSS\\Parser\\Helper -->
<g id="node26" class="node"><title>\\TBela\\CSS\\Parser\\Helper</title>
<polygon fill="none" stroke="black" points="1100.5,-1816.71 1043.5,-1816.71 1043.5,-1780.71 1100.5,-1780.71 1100.5,-1816.71"/>
<text text-anchor="middle" x="1072" y="-1795.91" font-family="Courier,monospace" font-size="11.00">Helper</text>
</g>
<!-- \\TBela\\CSS\\Parser\\AccessTrait -->
<g id="node27" class="node"><title>\\TBela\\CSS\\Parser\\AccessTrait</title>
<polygon fill="none" stroke="black" points="1117.5,-1762.71 1026.5,-1762.71 1026.5,-1726.71 1117.5,-1726.71 1117.5,-1762.71"/>
<text text-anchor="middle" x="1072" y="-1741.91" font-family="Courier,monospace" font-size="11.00">AccessTrait</text>
</g>
<!-- \\TBela\\CSS\\Parser\\ParserTrait -->
<g id="node28" class="node"><title>\\TBela\\CSS\\Parser\\ParserTrait</title>
<polygon fill="none" stroke="black" points="1117.5,-1708.71 1026.5,-1708.71 1026.5,-1672.71 1117.5,-1672.71 1117.5,-1708.71"/>
<text text-anchor="middle" x="1072" y="-1687.91" font-family="Courier,monospace" font-size="11.00">ParserTrait</text>
</g>
<!-- \\TBela\\CSS\\Element\\Declaration -->
<g id="node29" class="node"><title>\\TBela\\CSS\\Element\\Declaration</title>
<polygon fill="none" stroke="black" points="1117.5,-442.712 1026.5,-442.712 1026.5,-406.712 1117.5,-406.712 1117.5,-442.712"/>
<text text-anchor="middle" x="1072" y="-421.912" font-family="Courier,monospace" font-size="11.00">Declaration</text>
</g>
<!-- Element -->
<g id="node50" class="node"><title>Element</title>
<ellipse fill="none" stroke="black" cx="380" cy="-72.7118" rx="50.0912" ry="18"/>
<text text-anchor="middle" x="380" y="-69.0118" font-family="Times,serif" font-size="14.00">Element</text>
</g>
<!-- \\TBela\\CSS\\Element\\Declaration&#45;&gt;Element -->
<g id="edge9" class="edge"><title>\\TBela\\CSS\\Element\\Declaration&#45;&gt;Element</title>
<path fill="none" stroke="black" d="M1026.13,-420.556C1010.16,-416.873 993.343,-410.095 982,-397.712 876.787,-282.849 1018.43,-166.546 910,-54.7118 878.485,-22.2067 850.146,-53.4583 811,-30.7118"/>
</g>
<!-- \\TBela\\CSS\\Element\\Rule -->
<g id="node30" class="node"><title>\\TBela\\CSS\\Element\\Rule</title>
<polygon fill="none" stroke="black" points="1099,-550.712 1045,-550.712 1045,-514.712 1099,-514.712 1099,-550.712"/>
<text text-anchor="middle" x="1072" y="-529.912" font-family="Courier,monospace" font-size="11.00">Rule</text>
</g>
<!-- \\TBela\\CSS\\RuleList -->
<g id="node40" class="node"><title>\\TBela\\CSS\\RuleList</title>
<polygon fill="none" stroke="black" points="637.5,-550.712 552.5,-550.712 552.5,-514.712 637.5,-514.712 637.5,-550.712"/>
<text text-anchor="start" x="561" y="-536.412" font-family="Courier,monospace" font-size="11.00">«abstract»</text>
<text text-anchor="start" x="567.5" y="-525.412" font-family="Courier,monospace" font-size="11.00">RuleList</text>
</g>
<!-- \\TBela\\CSS\\Element\\Rule&#45;&gt;\\TBela\\CSS\\RuleList -->
<g id="edge10" class="edge"><title>\\TBela\\CSS\\Element\\Rule&#45;&gt;\\TBela\\CSS\\RuleList</title>
<path fill="none" stroke="black" d="M1044.93,-539.886C998.233,-551.935 897.167,-574.388 811,-568.712"/>
<path fill="none" stroke="black" d="M809,-568.712C753.395,-565.049 690.581,-553.51 647.66,-544.472"/>
<polygon fill="none" stroke="black" points="648.245,-541.018 637.734,-542.352 646.782,-547.863 648.245,-541.018"/>
</g>
<!-- \\TBela\\CSS\\Element\\AtRule -->
<g id="node31" class="node"><title>\\TBela\\CSS\\Element\\AtRule</title>
<polygon fill="none" stroke="black" points="1100.5,-496.712 1043.5,-496.712 1043.5,-460.712 1100.5,-460.712 1100.5,-496.712"/>
<text text-anchor="middle" x="1072" y="-475.912" font-family="Courier,monospace" font-size="11.00">AtRule</text>
</g>
<!-- \\TBela\\CSS\\Element\\RuleSet -->
<g id="node32" class="node"><title>\\TBela\\CSS\\Element\\RuleSet</title>
<polygon fill="none" stroke="black" points="852.5,-514.712 767.5,-514.712 767.5,-478.712 852.5,-478.712 852.5,-514.712"/>
<text text-anchor="start" x="776" y="-500.412" font-family="Courier,monospace" font-size="11.00">«abstract»</text>
<text text-anchor="start" x="786" y="-489.412" font-family="Courier,monospace" font-size="11.00">RuleSet</text>
</g>
<!-- \\TBela\\CSS\\Element\\AtRule&#45;&gt;\\TBela\\CSS\\Element\\RuleSet -->
<g id="edge11" class="edge"><title>\\TBela\\CSS\\Element\\AtRule&#45;&gt;\\TBela\\CSS\\Element\\RuleSet</title>
<path fill="none" stroke="black" d="M1043.18,-480.638C1000.22,-483.612 917.073,-489.368 862.821,-493.124"/>
<polygon fill="none" stroke="black" points="862.445,-489.642 852.71,-493.824 862.928,-496.625 862.445,-489.642"/>
</g>
<!-- \\TBela\\CSS\\Element\\RuleSet&#45;&gt;\\TBela\\CSS\\RuleList -->
<g id="edge18" class="edge"><title>\\TBela\\CSS\\Element\\RuleSet&#45;&gt;\\TBela\\CSS\\RuleList</title>
<path fill="none" stroke="black" d="M767.426,-503.738C733.231,-509.518 684.595,-517.738 647.857,-523.947"/>
<polygon fill="none" stroke="black" points="647.11,-520.524 637.833,-525.641 648.276,-527.426 647.11,-520.524"/>
</g>
<!-- \\TBela\\CSS\\Element\\Stylesheet -->
<g id="node33" class="node"><title>\\TBela\\CSS\\Element\\Stylesheet</title>
<polygon fill="none" stroke="black" points="1114,-604.712 1030,-604.712 1030,-568.712 1114,-568.712 1114,-604.712"/>
<text text-anchor="middle" x="1072" y="-583.912" font-family="Courier,monospace" font-size="11.00">Stylesheet</text>
</g>
<!-- \\TBela\\CSS\\Element\\Stylesheet&#45;&gt;\\TBela\\CSS\\RuleList -->
<g id="edge20" class="edge"><title>\\TBela\\CSS\\Element\\Stylesheet&#45;&gt;\\TBela\\CSS\\RuleList</title>
<path fill="none" stroke="black" d="M1029.58,-583.758C978.276,-580.121 888.205,-573.798 811,-568.712"/>
</g>
<!-- \\TBela\\CSS\\Element\\Comment -->
<g id="node34" class="node"><title>\\TBela\\CSS\\Element\\Comment</title>
<polygon fill="none" stroke="black" points="1104,-388.712 1040,-388.712 1040,-352.712 1104,-352.712 1104,-388.712"/>
<text text-anchor="middle" x="1072" y="-367.912" font-family="Courier,monospace" font-size="11.00">Comment</text>
</g>
<!-- \\TBela\\CSS\\Element\\Comment&#45;&gt;Element -->
<g id="edge29" class="edge"><title>\\TBela\\CSS\\Element\\Comment&#45;&gt;Element</title>
<path fill="none" stroke="black" d="M1039.73,-367.697C1020.52,-364.224 996.832,-356.756 982,-340.712 893.022,-244.461 1003.09,-146.989 910,-54.7118 877.846,-22.8389 851.254,-51.4337 811,-30.7118"/>
<path fill="none" stroke="black" d="M809,-30.7118C680.247,35.5678 500.913,-22.6926 421.547,-54.8264"/>
<polygon fill="none" stroke="black" points="419.835,-51.7465 411.924,-58.7943 422.504,-58.2179 419.835,-51.7465"/>
</g>
<!-- \\TBela\\CSS\\Interfaces\\RenderablePropertyInterface -->
<g id="node35" class="node"><title>\\TBela\\CSS\\Interfaces\\RenderablePropertyInterface</title>
<polygon fill="none" stroke="black" points="479.5,-1870.71 280.5,-1870.71 280.5,-1834.71 479.5,-1834.71 479.5,-1870.71"/>
<text text-anchor="middle" x="380" y="-1849.91" font-family="Courier,monospace" font-size="11.00">RenderablePropertyInterface</text>
</g>
<!-- \\TBela\\CSS\\Interfaces\\RuleListInterface -->
<g id="node37" class="node"><title>\\TBela\\CSS\\Interfaces\\RuleListInterface</title>
<polygon fill="none" stroke="black" points="445.5,-1762.71 314.5,-1762.71 314.5,-1726.71 445.5,-1726.71 445.5,-1762.71"/>
<text text-anchor="middle" x="380" y="-1741.91" font-family="Courier,monospace" font-size="11.00">RuleListInterface</text>
</g>
<!-- \\TBela\\CSS\\Interfaces\\RuleListInterface&#45;&gt;IteratorAggregate -->
<g id="edge32" class="edge"><title>\\TBela\\CSS\\Interfaces\\RuleListInterface&#45;&gt;IteratorAggregate</title>
<path fill="none" stroke="black" d="M314.393,-1753.42C295.042,-1757.46 274.152,-1763.31 256,-1771.71 210.109,-1792.96 165.032,-1830.97 138.117,-1856.01"/>
<polygon fill="none" stroke="black" points="135.562,-1853.61 130.694,-1863.02 140.368,-1858.7 135.562,-1853.61"/>
</g>
<!-- \\TBela\\CSS\\Event\\Event -->
<g id="node38" class="node"><title>\\TBela\\CSS\\Event\\Event</title>
<polygon fill="none" stroke="black" points="1099,-308.712 1045,-308.712 1045,-272.712 1099,-272.712 1099,-308.712"/>
<text text-anchor="middle" x="1072" y="-287.912" font-family="Courier,monospace" font-size="11.00">Event</text>
</g>
<!-- \\TBela\\CSS\\Event\\EventInterface -->
<g id="node39" class="node"><title>\\TBela\\CSS\\Event\\EventInterface</title>
<polygon fill="none" stroke="black" points="865.5,-308.712 754.5,-308.712 754.5,-272.712 865.5,-272.712 865.5,-308.712"/>
<text text-anchor="middle" x="810" y="-287.912" font-family="Courier,monospace" font-size="11.00">EventInterface</text>
</g>
<!-- \\TBela\\CSS\\Event\\Event&#45;&gt;\\TBela\\CSS\\Event\\EventInterface -->
<g id="edge22" class="edge"><title>\\TBela\\CSS\\Event\\Event&#45;&gt;\\TBela\\CSS\\Event\\EventInterface</title>
<path fill="none" stroke="black" stroke-dasharray="1,5" d="M1044.64,-290.712C1005.4,-290.712 930.427,-290.712 875.964,-290.712"/>
<polygon fill="none" stroke="black" points="875.705,-287.212 865.704,-290.712 875.704,-294.212 875.705,-287.212"/>
</g>
<!-- \\TBela\\CSS\\RuleList&#45;&gt;Element -->
<g id="edge27" class="edge"><title>\\TBela\\CSS\\RuleList&#45;&gt;Element</title>
<path fill="none" stroke="black" d="M585.65,-514.679C552.874,-443.896 432.896,-184.789 393.573,-99.8653"/>
<polygon fill="none" stroke="black" points="396.67,-98.2234 389.292,-90.6197 390.318,-101.165 396.67,-98.2234"/>
</g>
<!-- \\TBela\\CSS\\RuleList&#45;&gt;\\TBela\\CSS\\Interfaces\\RuleListInterface -->
<g id="edge28" class="edge"><title>\\TBela\\CSS\\RuleList&#45;&gt;\\TBela\\CSS\\Interfaces\\RuleListInterface</title>
<path fill="none" stroke="black" stroke-dasharray="1,5" d="M590.824,-550.785C566.922,-686.789 415.403,-1548.96 385.955,-1716.52"/>
<polygon fill="none" stroke="black" points="382.478,-1716.08 384.195,-1726.53 389.373,-1717.29 382.478,-1716.08"/>
</g>
<!-- \\TBela\\CSS\\ArrayTrait -->
<g id="node41" class="node"><title>\\TBela\\CSS\\ArrayTrait</title>
<polygon fill="none" stroke="black" points="1114,-254.712 1030,-254.712 1030,-218.712 1114,-218.712 1114,-254.712"/>
<text text-anchor="middle" x="1072" y="-233.912" font-family="Courier,monospace" font-size="11.00">ArrayTrait</text>
</g>
<!-- \\TBela\\CSS\\ElementTrait -->
<g id="node42" class="node"><title>\\TBela\\CSS\\ElementTrait</title>
<polygon fill="none" stroke="black" points="1121,-200.712 1023,-200.712 1023,-164.712 1121,-164.712 1121,-200.712"/>
<text text-anchor="middle" x="1072" y="-179.912" font-family="Courier,monospace" font-size="11.00">ElementTrait</text>
</g>
</g>
</svg>
