<?xml version="1.0" encoding="UTF-8" standalone="no"?>
<!DOCTYPE svg PUBLIC "-//W3C//DTD SVG 1.1//EN"
 "http://www.w3.org/Graphics/SVG/1.1/DTD/svg11.dtd">
<!-- Generated by graphviz version 2.30.1 (20180420.1509)
 -->
<!-- Title: G Pages: 1 -->
<svg width="1210pt" height="2262pt"
 viewBox="0.00 0.00 1210.00 2262.00" xmlns="http://www.w3.org/2000/svg" xmlns:xlink="http://www.w3.org/1999/xlink">
<g id="graph0" class="graph" transform="scale(1 1) rotate(0) translate(4 2258)">
<title>G</title>
<polygon fill="white" stroke="white" points="-4,5 -4,-2258 1207,-2258 1207,5 -4,5"/>
<g id="clust1" class="cluster"><title>cluster_Global</title>
<path fill="none" stroke="gray" d="M20,-46C20,-46 1182,-46 1182,-46 1188,-46 1194,-52 1194,-58 1194,-58 1194,-2234 1194,-2234 1194,-2240 1188,-2246 1182,-2246 1182,-2246 20,-2246 20,-2246 14,-2246 8,-2240 8,-2234 8,-2234 8,-58 8,-58 8,-52 14,-46 20,-46"/>
<text text-anchor="middle" x="601" y="-2233.2" font-family="Times,serif" font-size="11.00" fill="gray">Global</text>
</g>
<g id="clust2" class="cluster"><title>cluster_\TBela</title>
<path fill="none" stroke="gray" d="M268,-98C268,-98 1174,-98 1174,-98 1180,-98 1186,-104 1186,-110 1186,-110 1186,-1892 1186,-1892 1186,-1898 1180,-1904 1174,-1904 1174,-1904 268,-1904 268,-1904 262,-1904 256,-1898 256,-1892 256,-1892 256,-110 256,-110 256,-104 262,-98 268,-98"/>
<text text-anchor="middle" x="721" y="-1891.2" font-family="Times,serif" font-size="11.00" fill="gray">TBela</text>
</g>
<g id="clust3" class="cluster"><title>cluster_\TBela\CSS</title>
<path fill="none" stroke="gray" d="M276,-106C276,-106 1166,-106 1166,-106 1172,-106 1178,-112 1178,-118 1178,-118 1178,-1864 1178,-1864 1178,-1870 1172,-1876 1166,-1876 1166,-1876 276,-1876 276,-1876 270,-1876 264,-1870 264,-1864 264,-1864 264,-118 264,-118 264,-112 270,-106 276,-106"/>
<text text-anchor="middle" x="721" y="-1863.2" font-family="Times,serif" font-size="11.00" fill="gray">CSS</text>
</g>
<g id="clust4" class="cluster"><title>cluster_\TBela\CSS\Element</title>
<path fill="none" stroke="gray" d="M771,-1318C771,-1318 1114,-1318 1114,-1318 1120,-1318 1126,-1324 1126,-1330 1126,-1330 1126,-1594 1126,-1594 1126,-1600 1120,-1606 1114,-1606 1114,-1606 771,-1606 771,-1606 765,-1606 759,-1600 759,-1594 759,-1594 759,-1330 759,-1330 759,-1324 765,-1318 771,-1318"/>
<text text-anchor="middle" x="942.5" y="-1593.2" font-family="Times,serif" font-size="11.00" fill="gray">Element</text>
</g>
<g id="clust5" class="cluster"><title>cluster_\TBela\CSS\Event</title>
<path fill="none" stroke="gray" d="M758,-1238C758,-1238 1095,-1238 1095,-1238 1101,-1238 1107,-1244 1107,-1250 1107,-1250 1107,-1298 1107,-1298 1107,-1304 1101,-1310 1095,-1310 1095,-1310 758,-1310 758,-1310 752,-1310 746,-1304 746,-1298 746,-1298 746,-1250 746,-1250 746,-1244 752,-1238 758,-1238"/>
<text text-anchor="middle" x="926.5" y="-1297.2" font-family="Times,serif" font-size="11.00" fill="gray">Event</text>
</g>
<g id="clust6" class="cluster"><title>cluster_\TBela\CSS\Interfaces</title>
<path fill="none" stroke="gray" d="M284,-1426C284,-1426 476,-1426 476,-1426 482,-1426 488,-1432 488,-1438 488,-1438 488,-1594 488,-1594 488,-1600 482,-1606 476,-1606 476,-1606 284,-1606 284,-1606 278,-1606 272,-1600 272,-1594 272,-1594 272,-1438 272,-1438 272,-1432 278,-1426 284,-1426"/>
<text text-anchor="middle" x="380" y="-1593.2" font-family="Times,serif" font-size="11.00" fill="gray">Interfaces</text>
</g>
<g id="clust7" class="cluster"><title>cluster_\TBela\CSS\Parser</title>
<path fill="none" stroke="gray" d="M1030,-1614C1030,-1614 1114,-1614 1114,-1614 1120,-1614 1126,-1620 1126,-1626 1126,-1626 1126,-1836 1126,-1836 1126,-1842 1120,-1848 1114,-1848 1114,-1848 1030,-1848 1030,-1848 1024,-1848 1018,-1842 1018,-1836 1018,-1836 1018,-1626 1018,-1626 1018,-1620 1024,-1614 1030,-1614"/>
<text text-anchor="middle" x="1072" y="-1835.2" font-family="Times,serif" font-size="11.00" fill="gray">Parser</text>
</g>
<g id="clust8" class="cluster"><title>cluster_\TBela\CSS\Property</title>
<path fill="none" stroke="gray" d="M567,-1480C567,-1480 623,-1480 623,-1480 629,-1480 635,-1486 635,-1492 635,-1492 635,-1594 635,-1594 635,-1600 629,-1606 623,-1606 623,-1606 567,-1606 567,-1606 561,-1606 555,-1600 555,-1594 555,-1594 555,-1492 555,-1492 555,-1486 561,-1480 567,-1480"/>
<text text-anchor="middle" x="595" y="-1593.2" font-family="Times,serif" font-size="11.00" fill="gray">Property</text>
</g>
<g id="clust9" class="cluster"><title>cluster_\TBela\CSS\Query</title>
<path fill="none" stroke="gray" d="M714,-888C714,-888 1151,-888 1151,-888 1157,-888 1163,-894 1163,-900 1163,-900 1163,-1218 1163,-1218 1163,-1224 1157,-1230 1151,-1230 1151,-1230 714,-1230 714,-1230 708,-1230 702,-1224 702,-1218 702,-1218 702,-900 702,-900 702,-894 708,-888 714,-888"/>
<text text-anchor="middle" x="932.5" y="-1217.2" font-family="Times,serif" font-size="11.00" fill="gray">Query</text>
</g>
<g id="clust10" class="cluster"><title>cluster_\TBela\CSS\Value</title>
<path fill="none" stroke="gray" d="M775,-214C775,-214 1158,-214 1158,-214 1164,-214 1170,-220 1170,-226 1170,-226 1170,-868 1170,-868 1170,-874 1164,-880 1158,-880 1158,-880 775,-880 775,-880 769,-880 763,-874 763,-868 763,-868 763,-226 763,-226 763,-220 769,-214 775,-214"/>
<text text-anchor="middle" x="966.5" y="-867.2" font-family="Times,serif" font-size="11.00" fill="gray">Value</text>
</g>
<g id="clust11" class="cluster"><title>cluster_Global\TBela</title>
<path fill="none" stroke="gray" d="M761,-1956C761,-1956 859,-1956 859,-1956 865,-1956 871,-1962 871,-1968 871,-1968 871,-2088 871,-2088 871,-2094 865,-2100 859,-2100 859,-2100 761,-2100 761,-2100 755,-2100 749,-2094 749,-2088 749,-2088 749,-1968 749,-1968 749,-1962 755,-1956 761,-1956"/>
<text text-anchor="middle" x="810" y="-2087.2" font-family="Times,serif" font-size="11.00" fill="gray">TBela</text>
</g>
<g id="clust12" class="cluster"><title>cluster_Global\TBela\CSS</title>
<path fill="none" stroke="gray" d="M769,-1964C769,-1964 851,-1964 851,-1964 857,-1964 863,-1970 863,-1976 863,-1976 863,-2060 863,-2060 863,-2066 857,-2072 851,-2072 851,-2072 769,-2072 769,-2072 763,-2072 757,-2066 757,-2060 757,-2060 757,-1976 757,-1976 757,-1970 763,-1964 769,-1964"/>
<text text-anchor="middle" x="810" y="-2059.2" font-family="Times,serif" font-size="11.00" fill="gray">CSS</text>
</g>
<g id="clust13" class="cluster"><title>cluster_Global\TBela\CSS\Value</title>
<path fill="none" stroke="gray" d="M777,-1972C777,-1972 843,-1972 843,-1972 849,-1972 855,-1978 855,-1984 855,-1984 855,-2032 855,-2032 855,-2038 849,-2044 843,-2044 843,-2044 777,-2044 777,-2044 771,-2044 765,-2038 765,-2032 765,-2032 765,-1984 765,-1984 765,-1978 771,-1972 777,-1972"/>
<text text-anchor="middle" x="810" y="-2031.2" font-family="Times,serif" font-size="11.00" fill="gray">Value</text>
</g>
<!-- \\TBela\\CSS\\Element\\AtRule -->
<g id="node1" class="node"><title>\\TBela\\CSS\\Element\\AtRule</title>
<polygon fill="none" stroke="black" points="1100.5,-1470 1043.5,-1470 1043.5,-1434 1100.5,-1434 1100.5,-1470"/>
<text text-anchor="middle" x="1072" y="-1449.2" font-family="Courier,monospace" font-size="11.00">AtRule</text>
</g>
<!-- \\TBela\\CSS\\Element\\RuleSet -->
<g id="node5" class="node"><title>\\TBela\\CSS\\Element\\RuleSet</title>
<polygon fill="none" stroke="black" points="852.5,-1470 767.5,-1470 767.5,-1434 852.5,-1434 852.5,-1470"/>
<text text-anchor="start" x="776" y="-1455.7" font-family="Courier,monospace" font-size="11.00">«abstract»</text>
<text text-anchor="start" x="786" y="-1444.7" font-family="Courier,monospace" font-size="11.00">RuleSet</text>
</g>
<!-- \\TBela\\CSS\\Element\\AtRule&#45;&gt;\\TBela\\CSS\\Element\\RuleSet -->
<g id="edge1" class="edge"><title>\\TBela\\CSS\\Element\\AtRule&#45;&gt;\\TBela\\CSS\\Element\\RuleSet</title>
<path fill="none" stroke="black" d="M1043.18,-1452C1000.22,-1452 917.073,-1452 862.821,-1452"/>
<polygon fill="none" stroke="black" points="862.71,-1448.5 852.71,-1452 862.71,-1455.5 862.71,-1448.5"/>
</g>
<!-- \\TBela\\CSS\\Element\\Comment -->
<g id="node2" class="node"><title>\\TBela\\CSS\\Element\\Comment</title>
<polygon fill="none" stroke="black" points="1104,-1416 1040,-1416 1040,-1380 1104,-1380 1104,-1416"/>
<text text-anchor="middle" x="1072" y="-1395.2" font-family="Courier,monospace" font-size="11.00">Comment</text>
</g>
<!-- Element -->
<g id="node49" class="node"><title>Element</title>
<ellipse fill="none" stroke="black" cx="380" cy="-18" rx="50.0912" ry="18"/>
<text text-anchor="middle" x="380" y="-14.3" font-family="Times,serif" font-size="14.00">Element</text>
</g>
<!-- \\TBela\\CSS\\Element\\Comment&#45;&gt;Element -->
<g id="edge2" class="edge"><title>\\TBela\\CSS\\Element\\Comment&#45;&gt;Element</title>
<path fill="none" stroke="black" d="M1039.65,-1397.12C1019.89,-1394.77 995.621,-1388.22 982,-1371 821.662,-1168.24 1085.47,-399.82 910,-210 879.836,-177.368 839.589,-230.021 811,-196"/>
</g>
<!-- \\TBela\\CSS\\Element\\Declaration -->
<g id="node3" class="node"><title>\\TBela\\CSS\\Element\\Declaration</title>
<polygon fill="none" stroke="black" points="1117.5,-1362 1026.5,-1362 1026.5,-1326 1117.5,-1326 1117.5,-1362"/>
<text text-anchor="middle" x="1072" y="-1341.2" font-family="Courier,monospace" font-size="11.00">Declaration</text>
</g>
<!-- \\TBela\\CSS\\Element\\Declaration&#45;&gt;Element -->
<g id="edge3" class="edge"><title>\\TBela\\CSS\\Element\\Declaration&#45;&gt;Element</title>
<path fill="none" stroke="black" d="M1026.45,-1339.4C1009.93,-1335.34 992.634,-1327.83 982,-1314 832.157,-1119.09 1077.17,-390.271 910,-210 879.784,-177.416 845.673,-223.793 811,-196"/>
<path fill="none" stroke="black" d="M809,-196C770.972,-165.518 747.201,-190.226 702,-172 598.789,-130.384 591.211,-83.616 488,-42 471.843,-35.4852 453.565,-30.5613 436.747,-26.9234"/>
<polygon fill="none" stroke="black" points="436.995,-23.4016 426.496,-24.8218 435.589,-30.259 436.995,-23.4016"/>
</g>
<!-- \\TBela\\CSS\\Element\\Rule -->
<g id="node4" class="node"><title>\\TBela\\CSS\\Element\\Rule</title>
<polygon fill="none" stroke="black" points="1099,-1524 1045,-1524 1045,-1488 1099,-1488 1099,-1524"/>
<text text-anchor="middle" x="1072" y="-1503.2" font-family="Courier,monospace" font-size="11.00">Rule</text>
</g>
<!-- \\TBela\\CSS\\RuleList -->
<g id="node40" class="node"><title>\\TBela\\CSS\\RuleList</title>
<polygon fill="none" stroke="black" points="637.5,-1470 552.5,-1470 552.5,-1434 637.5,-1434 637.5,-1470"/>
<text text-anchor="start" x="561" y="-1455.7" font-family="Courier,monospace" font-size="11.00">«abstract»</text>
<text text-anchor="start" x="567.5" y="-1444.7" font-family="Courier,monospace" font-size="11.00">RuleList</text>
</g>
<!-- \\TBela\\CSS\\Element\\Rule&#45;&gt;\\TBela\\CSS\\RuleList -->
<g id="edge4" class="edge"><title>\\TBela\\CSS\\Element\\Rule&#45;&gt;\\TBela\\CSS\\RuleList</title>
<path fill="none" stroke="black" d="M1044.68,-1510.62C987.891,-1520.29 855.424,-1541.09 811,-1533"/>
<path fill="none" stroke="black" d="M809,-1533C748.389,-1521.96 682.702,-1494.38 640.542,-1474.47"/>
<polygon fill="none" stroke="black" points="641.924,-1471.25 631.392,-1470.09 638.904,-1477.56 641.924,-1471.25"/>
</g>
<!-- \\TBela\\CSS\\Element\\RuleSet&#45;&gt;\\TBela\\CSS\\RuleList -->
<g id="edge5" class="edge"><title>\\TBela\\CSS\\Element\\RuleSet&#45;&gt;\\TBela\\CSS\\RuleList</title>
<path fill="none" stroke="black" d="M767.426,-1452C733.231,-1452 684.595,-1452 647.857,-1452"/>
<polygon fill="none" stroke="black" points="647.833,-1448.5 637.833,-1452 647.833,-1455.5 647.833,-1448.5"/>
</g>
<!-- \\TBela\\CSS\\Element\\Stylesheet -->
<g id="node6" class="node"><title>\\TBela\\CSS\\Element\\Stylesheet</title>
<polygon fill="none" stroke="black" points="1114,-1578 1030,-1578 1030,-1542 1114,-1542 1114,-1578"/>
<text text-anchor="middle" x="1072" y="-1557.2" font-family="Courier,monospace" font-size="11.00">Stylesheet</text>
</g>
<!-- \\TBela\\CSS\\Element\\Stylesheet&#45;&gt;\\TBela\\CSS\\RuleList -->
<g id="edge6" class="edge"><title>\\TBela\\CSS\\Element\\Stylesheet&#45;&gt;\\TBela\\CSS\\RuleList</title>
<path fill="none" stroke="black" d="M1029.75,-1553.38C997.29,-1548.4 950.869,-1541.82 910,-1538 866.135,-1533.9 854.343,-1540.89 811,-1533"/>
</g>
<!-- \\TBela\\CSS\\Event\\Event -->
<g id="node7" class="node"><title>\\TBela\\CSS\\Event\\Event</title>
<polygon fill="none" stroke="black" points="1099,-1282 1045,-1282 1045,-1246 1099,-1246 1099,-1282"/>
<text text-anchor="middle" x="1072" y="-1261.2" font-family="Courier,monospace" font-size="11.00">Event</text>
</g>
<!-- \\TBela\\CSS\\Event\\EventInterface -->
<g id="node8" class="node"><title>\\TBela\\CSS\\Event\\EventInterface</title>
<polygon fill="none" stroke="black" points="865.5,-1282 754.5,-1282 754.5,-1246 865.5,-1246 865.5,-1282"/>
<text text-anchor="middle" x="810" y="-1261.2" font-family="Courier,monospace" font-size="11.00">EventInterface</text>
</g>
<!-- \\TBela\\CSS\\Event\\Event&#45;&gt;\\TBela\\CSS\\Event\\EventInterface -->
<g id="edge7" class="edge"><title>\\TBela\\CSS\\Event\\Event&#45;&gt;\\TBela\\CSS\\Event\\EventInterface</title>
<path fill="none" stroke="black" stroke-dasharray="1,5" d="M1044.64,-1264C1005.4,-1264 930.427,-1264 875.964,-1264"/>
<polygon fill="none" stroke="black" points="875.705,-1260.5 865.704,-1264 875.704,-1267.5 875.705,-1260.5"/>
</g>
<!-- \\TBela\\CSS\\Interfaces\\RenderableInterface -->
<g id="node9" class="node"><title>\\TBela\\CSS\\Interfaces\\RenderableInterface</title>
<polygon fill="none" stroke="black" points="452.5,-1578 307.5,-1578 307.5,-1542 452.5,-1542 452.5,-1578"/>
<text text-anchor="middle" x="380" y="-1557.2" font-family="Courier,monospace" font-size="11.00">RenderableInterface</text>
</g>
<!-- \\TBela\\CSS\\Interfaces\\RenderablePropertyInterface -->
<g id="node10" class="node"><title>\\TBela\\CSS\\Interfaces\\RenderablePropertyInterface</title>
<polygon fill="none" stroke="black" points="479.5,-1524 280.5,-1524 280.5,-1488 479.5,-1488 479.5,-1524"/>
<text text-anchor="middle" x="380" y="-1503.2" font-family="Courier,monospace" font-size="11.00">RenderablePropertyInterface</text>
</g>
<!-- \\TBela\\CSS\\Interfaces\\RuleListInterface -->
<g id="node11" class="node"><title>\\TBela\\CSS\\Interfaces\\RuleListInterface</title>
<polygon fill="none" stroke="black" points="445.5,-1470 314.5,-1470 314.5,-1434 445.5,-1434 445.5,-1470"/>
<text text-anchor="middle" x="380" y="-1449.2" font-family="Courier,monospace" font-size="11.00">RuleListInterface</text>
</g>
<!-- IteratorAggregate -->
<g id="node46" class="node"><title>IteratorAggregate</title>
<ellipse fill="none" stroke="black" cx="112" cy="-1780" rx="96.3833" ry="18"/>
<text text-anchor="middle" x="112" y="-1776.3" font-family="Times,serif" font-size="14.00" fill="gray">IteratorAggregate</text>
</g>
<!-- \\TBela\\CSS\\Interfaces\\RuleListInterface&#45;&gt;IteratorAggregate -->
<g id="edge30" class="edge"><title>\\TBela\\CSS\\Interfaces\\RuleListInterface&#45;&gt;IteratorAggregate</title>
<path fill="none" stroke="black" d="M314.488,-1455.09C294.056,-1458.8 272.515,-1465.87 256,-1479 166.284,-1550.32 129.787,-1691.51 117.868,-1751.72"/>
<polygon fill="none" stroke="black" points="114.408,-1751.18 115.98,-1761.66 121.285,-1752.49 114.408,-1751.18"/>
</g>
<!-- \\TBela\\CSS\\Parser\\Helper -->
<g id="node12" class="node"><title>\\TBela\\CSS\\Parser\\Helper</title>
<polygon fill="none" stroke="black" points="1100.5,-1820 1043.5,-1820 1043.5,-1784 1100.5,-1784 1100.5,-1820"/>
<text text-anchor="middle" x="1072" y="-1799.2" font-family="Courier,monospace" font-size="11.00">Helper</text>
</g>
<!-- \\TBela\\CSS\\Parser\\SyntaxError -->
<g id="node13" class="node"><title>\\TBela\\CSS\\Parser\\SyntaxError</title>
<polygon fill="none" stroke="black" points="1117.5,-1766 1026.5,-1766 1026.5,-1730 1117.5,-1730 1117.5,-1766"/>
<text text-anchor="middle" x="1072" y="-1745.2" font-family="Courier,monospace" font-size="11.00">SyntaxError</text>
</g>
<!-- Exception -->
<g id="node44" class="node"><title>Exception</title>
<ellipse fill="none" stroke="black" cx="810" cy="-1930" rx="57.6901" ry="18"/>
<text text-anchor="middle" x="810" y="-1926.3" font-family="Times,serif" font-size="14.00" fill="gray">Exception</text>
</g>
<!-- \\TBela\\CSS\\Parser\\SyntaxError&#45;&gt;Exception -->
<g id="edge8" class="edge"><title>\\TBela\\CSS\\Parser\\SyntaxError&#45;&gt;Exception</title>
<path fill="none" stroke="black" d="M1026.42,-1757.37C1011.71,-1761.53 995.627,-1767.28 982,-1775 920.194,-1810.02 861.982,-1870.87 832.028,-1904.98"/>
<polygon fill="none" stroke="black" points="829.291,-1902.8 825.381,-1912.64 834.578,-1907.38 829.291,-1902.8"/>
</g>
<!-- \\TBela\\CSS\\Parser\\AccessTrait -->
<g id="node14" class="node"><title>\\TBela\\CSS\\Parser\\AccessTrait</title>
<polygon fill="none" stroke="black" points="1117.5,-1712 1026.5,-1712 1026.5,-1676 1117.5,-1676 1117.5,-1712"/>
<text text-anchor="middle" x="1072" y="-1691.2" font-family="Courier,monospace" font-size="11.00">AccessTrait</text>
</g>
<!-- \\TBela\\CSS\\Parser\\ParserTrait -->
<g id="node15" class="node"><title>\\TBela\\CSS\\Parser\\ParserTrait</title>
<polygon fill="none" stroke="black" points="1117.5,-1658 1026.5,-1658 1026.5,-1622 1117.5,-1622 1117.5,-1658"/>
<text text-anchor="middle" x="1072" y="-1637.2" font-family="Courier,monospace" font-size="11.00">ParserTrait</text>
</g>
<!-- \\TBela\\CSS\\Property\\Comment -->
<g id="node16" class="node"><title>\\TBela\\CSS\\Property\\Comment</title>
<polygon fill="none" stroke="black" points="627,-1578 563,-1578 563,-1542 627,-1542 627,-1578"/>
<text text-anchor="middle" x="595" y="-1557.2" font-family="Courier,monospace" font-size="11.00">Comment</text>
</g>
<!-- ArrayAccess -->
<g id="node45" class="node"><title>ArrayAccess</title>
<ellipse fill="none" stroke="black" cx="380" cy="-72" rx="69.5877" ry="18"/>
<text text-anchor="middle" x="380" y="-68.3" font-family="Times,serif" font-size="14.00" fill="gray">ArrayAccess</text>
</g>
<!-- \\TBela\\CSS\\Property\\Comment&#45;&gt;ArrayAccess -->
<g id="edge9" class="edge"><title>\\TBela\\CSS\\Property\\Comment&#45;&gt;ArrayAccess</title>
<path fill="none" stroke="black" stroke-dasharray="1,5" d="M562.683,-1544.51C558.524,-1541.24 554.754,-1537.41 552,-1533 394.81,-1281.15 382.095,-281.678 381.085,-100.306"/>
<polygon fill="none" stroke="black" points="384.584,-100.211 381.036,-90.2283 377.584,-100.245 384.584,-100.211"/>
</g>
<!-- \\TBela\\CSS\\Property\\Comment&#45;&gt;\\TBela\\CSS\\Interfaces\\RenderableInterface -->
<g id="edge10" class="edge"><title>\\TBela\\CSS\\Property\\Comment&#45;&gt;\\TBela\\CSS\\Interfaces\\RenderableInterface</title>
<path fill="none" stroke="black" stroke-dasharray="1,5" d="M562.571,-1560C536.345,-1560 497.762,-1560 462.899,-1560"/>
<polygon fill="none" stroke="black" points="462.699,-1556.5 452.699,-1560 462.699,-1563.5 462.699,-1556.5"/>
</g>
<!-- \\TBela\\CSS\\Property\\Config -->
<g id="node17" class="node"><title>\\TBela\\CSS\\Property\\Config</title>
<polygon fill="none" stroke="black" points="623.5,-1524 566.5,-1524 566.5,-1488 623.5,-1488 623.5,-1524"/>
<text text-anchor="middle" x="595" y="-1503.2" font-family="Courier,monospace" font-size="11.00">Config</text>
</g>
<!-- \\TBela\\CSS\\Query\\Token -->
<g id="node18" class="node"><title>\\TBela\\CSS\\Query\\Token</title>
<polygon fill="none" stroke="black" points="1114.5,-1148 1029.5,-1148 1029.5,-1112 1114.5,-1112 1114.5,-1148"/>
<text text-anchor="start" x="1038" y="-1133.7" font-family="Courier,monospace" font-size="11.00">«abstract»</text>
<text text-anchor="start" x="1055" y="-1122.7" font-family="Courier,monospace" font-size="11.00">Token</text>
</g>
<!-- \\TBela\\CSS\\Query\\TokenInterface -->
<g id="node25" class="node"><title>\\TBela\\CSS\\Query\\TokenInterface</title>
<polygon fill="none" stroke="black" points="865.5,-1040 754.5,-1040 754.5,-1004 865.5,-1004 865.5,-1040"/>
<text text-anchor="middle" x="810" y="-1019.2" font-family="Courier,monospace" font-size="11.00">TokenInterface</text>
</g>
<!-- \\TBela\\CSS\\Query\\Token&#45;&gt;\\TBela\\CSS\\Query\\TokenInterface -->
<g id="edge11" class="edge"><title>\\TBela\\CSS\\Query\\Token&#45;&gt;\\TBela\\CSS\\Query\\TokenInterface</title>
<path fill="none" stroke="black" stroke-dasharray="1,5" d="M1029.36,-1118.75C1014.28,-1114.32 997.214,-1108.87 982,-1103 937.602,-1085.86 888.689,-1062.18 854.591,-1044.85"/>
<polygon fill="none" stroke="black" points="855.879,-1041.57 845.382,-1040.14 852.692,-1047.81 855.879,-1041.57"/>
</g>
<!-- \\TBela\\CSS\\Query\\TokenSelectorValue -->
<g id="node19" class="node"><title>\\TBela\\CSS\\Query\\TokenSelectorValue</title>
<polygon fill="none" stroke="black" points="1141.5,-1202 1002.5,-1202 1002.5,-1166 1141.5,-1166 1141.5,-1202"/>
<text text-anchor="start" x="1038" y="-1187.7" font-family="Courier,monospace" font-size="11.00">«abstract»</text>
<text text-anchor="start" x="1011" y="-1176.7" font-family="Courier,monospace" font-size="11.00">TokenSelectorValue</text>
</g>
<!-- \\TBela\\CSS\\Query\\TokenSelectorValueInterface -->
<g id="node23" class="node"><title>\\TBela\\CSS\\Query\\TokenSelectorValueInterface</title>
<polygon fill="none" stroke="black" points="909.5,-1202 710.5,-1202 710.5,-1166 909.5,-1166 909.5,-1202"/>
<text text-anchor="middle" x="810" y="-1181.2" font-family="Courier,monospace" font-size="11.00">TokenSelectorValueInterface</text>
</g>
<!-- \\TBela\\CSS\\Query\\TokenSelectorValue&#45;&gt;\\TBela\\CSS\\Query\\TokenSelectorValueInterface -->
<g id="edge12" class="edge"><title>\\TBela\\CSS\\Query\\TokenSelectorValue&#45;&gt;\\TBela\\CSS\\Query\\TokenSelectorValueInterface</title>
<path fill="none" stroke="black" stroke-dasharray="1,5" d="M1002.35,-1184C977.157,-1184 947.978,-1184 920.114,-1184"/>
<polygon fill="none" stroke="black" points="919.918,-1180.5 909.918,-1184 919.918,-1187.5 919.918,-1180.5"/>
</g>
<!-- \\TBela\\CSS\\Query\\Evaluator -->
<g id="node20" class="node"><title>\\TBela\\CSS\\Query\\Evaluator</title>
<polygon fill="none" stroke="black" points="1110.5,-1094 1033.5,-1094 1033.5,-1058 1110.5,-1058 1110.5,-1094"/>
<text text-anchor="middle" x="1072" y="-1073.2" font-family="Courier,monospace" font-size="11.00">Evaluator</text>
</g>
<!-- \\TBela\\CSS\\Query\\TokenSelectInterface -->
<g id="node21" class="node"><title>\\TBela\\CSS\\Query\\TokenSelectInterface</title>
<polygon fill="none" stroke="black" points="1148,-1040 996,-1040 996,-1004 1148,-1004 1148,-1040"/>
<text text-anchor="middle" x="1072" y="-1019.2" font-family="Courier,monospace" font-size="11.00">TokenSelectInterface</text>
</g>
<!-- \\TBela\\CSS\\Query\\TokenSelectInterface&#45;&gt;\\TBela\\CSS\\Query\\TokenInterface -->
<g id="edge31" class="edge"><title>\\TBela\\CSS\\Query\\TokenSelectInterface&#45;&gt;\\TBela\\CSS\\Query\\TokenInterface</title>
<path fill="none" stroke="black" d="M995.797,-1022C957.824,-1022 912.215,-1022 875.81,-1022"/>
<polygon fill="none" stroke="black" points="875.799,-1018.5 865.799,-1022 875.799,-1025.5 875.799,-1018.5"/>
</g>
<!-- \\TBela\\CSS\\Query\\TokenSelectorInterface -->
<g id="node22" class="node"><title>\\TBela\\CSS\\Query\\TokenSelectorInterface</title>
<polygon fill="none" stroke="black" points="1154.5,-986 989.5,-986 989.5,-950 1154.5,-950 1154.5,-986"/>
<text text-anchor="middle" x="1072" y="-965.2" font-family="Courier,monospace" font-size="11.00">TokenSelectorInterface</text>
</g>
<!-- \\TBela\\CSS\\Query\\TokenSelectorInterface&#45;&gt;\\TBela\\CSS\\Query\\TokenInterface -->
<g id="edge32" class="edge"><title>\\TBela\\CSS\\Query\\TokenSelectorInterface&#45;&gt;\\TBela\\CSS\\Query\\TokenInterface</title>
<path fill="none" stroke="black" d="M989.448,-984.938C952.715,-992.567 909.96,-1001.45 875.511,-1008.6"/>
<polygon fill="none" stroke="black" points="874.644,-1005.21 865.565,-1010.67 876.068,-1012.06 874.644,-1005.21"/>
</g>
<!-- \\TBela\\CSS\\Query\\QueryInterface -->
<g id="node24" class="node"><title>\\TBela\\CSS\\Query\\QueryInterface</title>
<polygon fill="none" stroke="black" points="1127.5,-932 1016.5,-932 1016.5,-896 1127.5,-896 1127.5,-932"/>
<text text-anchor="middle" x="1072" y="-911.2" font-family="Courier,monospace" font-size="11.00">QueryInterface</text>
</g>
<!-- \\TBela\\CSS\\Value\\Whitespace -->
<g id="node26" class="node"><title>\\TBela\\CSS\\Value\\Whitespace</title>
<polygon fill="none" stroke="black" points="1114,-528 1030,-528 1030,-492 1114,-492 1114,-528"/>
<text text-anchor="middle" x="1072" y="-507.2" font-family="Courier,monospace" font-size="11.00">Whitespace</text>
</g>
<!-- Value -->
<g id="node50" class="node"><title>Value</title>
<ellipse fill="none" stroke="black" cx="595" cy="-20" rx="36.2938" ry="18"/>
<text text-anchor="middle" x="595" y="-16.3" font-family="Times,serif" font-size="14.00">Value</text>
</g>
<!-- \\TBela\\CSS\\Value\\Whitespace&#45;&gt;Value -->
<g id="edge13" class="edge"><title>\\TBela\\CSS\\Value\\Whitespace&#45;&gt;Value</title>
<path fill="none" stroke="black" d="M1029.97,-506.477C1012.99,-502.977 994.4,-496.164 982,-483 887.685,-382.874 1007.12,-279.412 910,-182 878.035,-149.937 844.693,-188.242 811,-158"/>
</g>
<!-- \\TBela\\CSS\\Value\\Comment -->
<g id="node27" class="node"><title>\\TBela\\CSS\\Value\\Comment</title>
<polygon fill="none" stroke="black" points="1104,-474 1040,-474 1040,-438 1104,-438 1104,-474"/>
<text text-anchor="middle" x="1072" y="-453.2" font-family="Courier,monospace" font-size="11.00">Comment</text>
</g>
<!-- \\TBela\\CSS\\Value\\Comment&#45;&gt;Value -->
<g id="edge14" class="edge"><title>\\TBela\\CSS\\Value\\Comment&#45;&gt;Value</title>
<path fill="none" stroke="black" d="M1039.99,-453.929C1020.89,-451.059 997.216,-444.383 982,-429 901.587,-347.705 992.686,-260.983 910,-182 877.261,-150.728 844.693,-188.242 811,-158"/>
</g>
<!-- \\TBela\\CSS\\Value\\CssAttribute -->
<g id="node28" class="node"><title>\\TBela\\CSS\\Value\\CssAttribute</title>
<polygon fill="none" stroke="black" points="1121,-420 1023,-420 1023,-384 1121,-384 1121,-420"/>
<text text-anchor="middle" x="1072" y="-399.2" font-family="Courier,monospace" font-size="11.00">CssAttribute</text>
</g>
<!-- \\TBela\\CSS\\Value\\CssAttribute&#45;&gt;Value -->
<g id="edge15" class="edge"><title>\\TBela\\CSS\\Value\\CssAttribute&#45;&gt;Value</title>
<path fill="none" stroke="black" d="M1022.94,-395.857C1008.32,-391.928 993.18,-385.502 982,-375 915.271,-312.318 978.479,-242.765 910,-182 876.136,-151.95 844.693,-188.242 811,-158"/>
</g>
<!-- \\TBela\\CSS\\Value\\CSSFunction -->
<g id="node29" class="node"><title>\\TBela\\CSS\\Value\\CSSFunction</title>
<polygon fill="none" stroke="black" points="1117.5,-366 1026.5,-366 1026.5,-330 1117.5,-330 1117.5,-366"/>
<text text-anchor="middle" x="1072" y="-345.2" font-family="Courier,monospace" font-size="11.00">CSSFunction</text>
</g>
<!-- \\TBela\\CSS\\Value\\CSSFunction&#45;&gt;Value -->
<g id="edge16" class="edge"><title>\\TBela\\CSS\\Value\\CSSFunction&#45;&gt;Value</title>
<path fill="none" stroke="black" d="M1026.42,-341.76C1011.04,-337.83 994.539,-331.427 982,-321 928.506,-276.515 964.734,-224.95 910,-182 874.383,-154.051 844.693,-188.242 811,-158"/>
<path fill="none" stroke="black" d="M809,-158C751.907,-106.754 673.945,-61.3799 629.912,-37.5958"/>
<polygon fill="none" stroke="black" points="631.519,-34.4861 621.051,-32.8538 628.216,-40.658 631.519,-34.4861"/>
</g>
<!-- \\TBela\\CSS\\Value\\CssParenthesisExpression -->
<g id="node30" class="node"><title>\\TBela\\CSS\\Value\\CssParenthesisExpression</title>
<polygon fill="none" stroke="black" points="1161.5,-636 982.5,-636 982.5,-600 1161.5,-600 1161.5,-636"/>
<text text-anchor="middle" x="1072" y="-615.2" font-family="Courier,monospace" font-size="11.00">CssParenthesisExpression</text>
</g>
<!-- \\TBela\\CSS\\Value\\CssParenthesisExpression&#45;&gt;Value -->
<g id="edge17" class="edge"><title>\\TBela\\CSS\\Value\\CssParenthesisExpression&#45;&gt;Value</title>
<path fill="none" stroke="black" d="M992.098,-599.949C988.407,-597.349 984.999,-594.383 982,-591 859.568,-452.878 1036.3,-316.595 910,-182 879.02,-148.985 844.693,-188.242 811,-158"/>
</g>
<!-- \\TBela\\CSS\\Value\\CssString -->
<g id="node31" class="node"><title>\\TBela\\CSS\\Value\\CssString</title>
<polygon fill="none" stroke="black" points="848.5,-636 771.5,-636 771.5,-600 848.5,-600 848.5,-636"/>
<text text-anchor="middle" x="810" y="-615.2" font-family="Courier,monospace" font-size="11.00">CssString</text>
</g>
<!-- \\TBela\\CSS\\Value\\CssString&#45;&gt;Value -->
<g id="edge18" class="edge"><title>\\TBela\\CSS\\Value\\CssString&#45;&gt;Value</title>
<path fill="none" stroke="black" d="M799.61,-599.946C779.329,-560.343 730.934,-462.474 702,-376 662.319,-257.407 681.047,-219.413 638,-102 630.933,-82.7238 620.394,-62.1626 611.641,-46.4512"/>
<polygon fill="none" stroke="black" points="614.453,-44.3152 606.469,-37.3502 608.367,-47.7737 614.453,-44.3152"/>
</g>
<!-- \\TBela\\CSS\\Value\\CssUrl -->
<g id="node32" class="node"><title>\\TBela\\CSS\\Value\\CssUrl</title>
<polygon fill="none" stroke="black" points="1100.5,-312 1043.5,-312 1043.5,-276 1100.5,-276 1100.5,-312"/>
<text text-anchor="middle" x="1072" y="-291.2" font-family="Courier,monospace" font-size="11.00">CssUrl</text>
</g>
<!-- CssFunction -->
<g id="node51" class="node"><title>CssFunction</title>
<ellipse fill="none" stroke="black" cx="810" cy="-20" rx="69.5877" ry="18"/>
<text text-anchor="middle" x="810" y="-16.3" font-family="Times,serif" font-size="14.00">CssFunction</text>
</g>
<!-- \\TBela\\CSS\\Value\\CssUrl&#45;&gt;CssFunction -->
<g id="edge19" class="edge"><title>\\TBela\\CSS\\Value\\CssUrl&#45;&gt;CssFunction</title>
<path fill="none" stroke="black" d="M1043.26,-290.946C1024.35,-287.665 999.622,-280.9 982,-267 932.266,-227.77 945.854,-196.22 910,-144 885.625,-108.498 854.102,-70.1155 833.251,-45.609"/>
<polygon fill="none" stroke="black" points="835.775,-43.1762 826.614,-37.8542 830.457,-47.7276 835.775,-43.1762"/>
</g>
<!-- \\TBela\\CSS\\Value\\FontFamily -->
<g id="node33" class="node"><title>\\TBela\\CSS\\Value\\FontFamily</title>
<polygon fill="none" stroke="black" points="1114,-744 1030,-744 1030,-708 1114,-708 1114,-744"/>
<text text-anchor="middle" x="1072" y="-723.2" font-family="Courier,monospace" font-size="11.00">FontFamily</text>
</g>
<!-- \\TBela\\CSS\\Value\\FontFamily&#45;&gt;\\TBela\\CSS\\Value\\CssString -->
<g id="edge20" class="edge"><title>\\TBela\\CSS\\Value\\FontFamily&#45;&gt;\\TBela\\CSS\\Value\\CssString</title>
<path fill="none" stroke="black" d="M1029.81,-714.883C1014.61,-710.423 997.364,-704.932 982,-699 937.602,-681.858 888.689,-658.176 854.591,-640.846"/>
<polygon fill="none" stroke="black" points="855.879,-637.574 845.382,-636.138 852.692,-643.807 855.879,-637.574"/>
</g>
<!-- \\TBela\\CSS\\Value\\Number -->
<g id="node34" class="node"><title>\\TBela\\CSS\\Value\\Number</title>
<polygon fill="none" stroke="black" points="838.5,-367 781.5,-367 781.5,-331 838.5,-331 838.5,-367"/>
<text text-anchor="middle" x="810" y="-346.2" font-family="Courier,monospace" font-size="11.00">Number</text>
</g>
<!-- \\TBela\\CSS\\Value\\Number&#45;&gt;Value -->
<g id="edge21" class="edge"><title>\\TBela\\CSS\\Value\\Number&#45;&gt;Value</title>
<path fill="none" stroke="black" d="M797.245,-330.843C761.584,-275.761 654.531,-110.407 612.859,-46.0405"/>
<polygon fill="none" stroke="black" points="615.574,-43.794 607.201,-37.3018 609.698,-47.5983 615.574,-43.794"/>
</g>
<!-- \\TBela\\CSS\\Value\\OutlineColor -->
<g id="node35" class="node"><title>\\TBela\\CSS\\Value\\OutlineColor</title>
<polygon fill="none" stroke="black" points="1121,-798 1023,-798 1023,-762 1121,-762 1121,-798"/>
<text text-anchor="middle" x="1072" y="-777.2" font-family="Courier,monospace" font-size="11.00">OutlineColor</text>
</g>
<!-- Color -->
<g id="node43" class="node"><title>Color</title>
<ellipse fill="none" stroke="black" cx="810" cy="-1998" rx="36.2938" ry="18"/>
<text text-anchor="middle" x="810" y="-1994.3" font-family="Times,serif" font-size="14.00" fill="gray">Color</text>
</g>
<!-- \\TBela\\CSS\\Value\\OutlineColor&#45;&gt;Color -->
<g id="edge22" class="edge"><title>\\TBela\\CSS\\Value\\OutlineColor&#45;&gt;Color</title>
<path fill="none" stroke="black" d="M1022.82,-783.859C1007.47,-787.58 991.913,-794.459 982,-807 820.604,-1011.19 1079.02,-1778.08 910,-1976 897.012,-1991.21 876.06,-1997.25 856.768,-1999.27"/>
<polygon fill="none" stroke="black" points="856.308,-1995.79 846.583,-2000 856.807,-2002.78 856.308,-1995.79"/>
</g>
<!-- \\TBela\\CSS\\Value\\Separator -->
<g id="node36" class="node"><title>\\TBela\\CSS\\Value\\Separator</title>
<polygon fill="none" stroke="black" points="1110.5,-582 1033.5,-582 1033.5,-546 1110.5,-546 1110.5,-582"/>
<text text-anchor="middle" x="1072" y="-561.2" font-family="Courier,monospace" font-size="11.00">Separator</text>
</g>
<!-- \\TBela\\CSS\\Value\\Separator&#45;&gt;Value -->
<g id="edge23" class="edge"><title>\\TBela\\CSS\\Value\\Separator&#45;&gt;Value</title>
<path fill="none" stroke="black" d="M1033.37,-561.371C1015.41,-558.161 995.039,-551.332 982,-537 873.663,-417.916 1021.67,-297.965 910,-182 878.596,-149.388 844.693,-188.242 811,-158"/>
</g>
<!-- \\TBela\\CSS\\Value\\Set -->
<g id="node37" class="node"><title>\\TBela\\CSS\\Value\\Set</title>
<polygon fill="none" stroke="black" points="1099,-852 1045,-852 1045,-816 1099,-816 1099,-852"/>
<text text-anchor="middle" x="1072" y="-831.2" font-family="Courier,monospace" font-size="11.00">Set</text>
</g>
<!-- \\TBela\\CSS\\Value\\Set&#45;&gt;IteratorAggregate -->
<g id="edge24" class="edge"><title>\\TBela\\CSS\\Value\\Set&#45;&gt;IteratorAggregate</title>
<path fill="none" stroke="black" stroke-dasharray="1,5" d="M1044.71,-841.18C1023.88,-848.363 996.035,-861.632 982,-884 913.129,-993.763 1004.41,-1959.25 910,-2048 673.932,-2269.92 248.132,-1905.6 139.026,-1804.75"/>
<polygon fill="none" stroke="black" points="141.142,-1801.93 131.437,-1797.68 136.372,-1807.06 141.142,-1801.93"/>
</g>
<!-- JsonSerializable -->
<g id="node47" class="node"><title>JsonSerializable</title>
<ellipse fill="none" stroke="black" cx="810" cy="-2146" rx="85.2851" ry="18"/>
<text text-anchor="middle" x="810" y="-2142.3" font-family="Times,serif" font-size="14.00" fill="gray">JsonSerializable</text>
</g>
<!-- \\TBela\\CSS\\Value\\Set&#45;&gt;JsonSerializable -->
<g id="edge25" class="edge"><title>\\TBela\\CSS\\Value\\Set&#45;&gt;JsonSerializable</title>
<path fill="none" stroke="black" stroke-dasharray="1,5" d="M1044.69,-841.168C1023.85,-848.344 995.998,-861.608 982,-884 836.861,-1116.17 1077.51,-1897.42 910,-2114 904.36,-2121.29 897.033,-2126.95 888.917,-2131.33"/>
<polygon fill="none" stroke="black" points="887.399,-2128.18 879.843,-2135.61 890.381,-2134.51 887.399,-2128.18"/>
</g>
<!-- Countable -->
<g id="node48" class="node"><title>Countable</title>
<ellipse fill="none" stroke="black" cx="810" cy="-2200" rx="58.4896" ry="18"/>
<text text-anchor="middle" x="810" y="-2196.3" font-family="Times,serif" font-size="14.00" fill="gray">Countable</text>
</g>
<!-- \\TBela\\CSS\\Value\\Set&#45;&gt;Countable -->
<g id="edge26" class="edge"><title>\\TBela\\CSS\\Value\\Set&#45;&gt;Countable</title>
<path fill="none" stroke="black" stroke-dasharray="1,5" d="M1044.67,-841.158C1023.83,-848.328 995.968,-861.59 982,-884 830.247,-1127.47 1090.43,-1949.95 910,-2173 901.696,-2183.26 889.904,-2189.85 877.338,-2194.02"/>
<polygon fill="none" stroke="black" points="876.296,-2190.68 867.623,-2196.77 878.198,-2197.42 876.296,-2190.68"/>
</g>
<!-- \\TBela\\CSS\\Value\\Unit -->
<g id="node38" class="node"><title>\\TBela\\CSS\\Value\\Unit</title>
<polygon fill="none" stroke="black" points="1099,-690 1045,-690 1045,-654 1099,-654 1099,-690"/>
<text text-anchor="middle" x="1072" y="-669.2" font-family="Courier,monospace" font-size="11.00">Unit</text>
</g>
<!-- \\TBela\\CSS\\Value\\Unit&#45;&gt;\\TBela\\CSS\\Value\\Number -->
<g id="edge27" class="edge"><title>\\TBela\\CSS\\Value\\Unit&#45;&gt;\\TBela\\CSS\\Value\\Number</title>
<path fill="none" stroke="black" d="M1044.86,-669.251C1025.74,-666.095 1000.09,-659.352 982,-645 890.118,-572.096 838.188,-435.342 819.285,-376.774"/>
<polygon fill="none" stroke="black" points="822.58,-375.586 816.236,-367.101 815.904,-377.691 822.58,-375.586"/>
</g>
<!-- \\TBela\\CSS\\Value\\ValueTrait -->
<g id="node39" class="node"><title>\\TBela\\CSS\\Value\\ValueTrait</title>
<polygon fill="none" stroke="black" points="1114,-258 1030,-258 1030,-222 1114,-222 1114,-258"/>
<text text-anchor="middle" x="1072" y="-237.2" font-family="Courier,monospace" font-size="11.00">ValueTrait</text>
</g>
<!-- \\TBela\\CSS\\RuleList&#45;&gt;Element -->
<g id="edge28" class="edge"><title>\\TBela\\CSS\\RuleList&#45;&gt;Element</title>
<path fill="none" stroke="black" d="M593.918,-1433.71C593.047,-1276.23 583.495,-152.521 488,-42 476.138,-28.2721 458.281,-21.4389 440.534,-18.2697"/>
<polygon fill="none" stroke="black" points="440.536,-14.7353 430.145,-16.8026 439.557,-21.6665 440.536,-14.7353"/>
</g>
<!-- \\TBela\\CSS\\RuleList&#45;&gt;\\TBela\\CSS\\Interfaces\\RuleListInterface -->
<g id="edge29" class="edge"><title>\\TBela\\CSS\\RuleList&#45;&gt;\\TBela\\CSS\\Interfaces\\RuleListInterface</title>
<path fill="none" stroke="black" stroke-dasharray="1,5" d="M552.426,-1452C525.005,-1452 488.299,-1452 455.888,-1452"/>
<polygon fill="none" stroke="black" points="455.534,-1448.5 445.534,-1452 455.534,-1455.5 455.534,-1448.5"/>
</g>
<!-- \\TBela\\CSS\\ArrayTrait -->
<g id="node41" class="node"><title>\\TBela\\CSS\\ArrayTrait</title>
<polygon fill="none" stroke="black" points="1114,-204 1030,-204 1030,-168 1114,-168 1114,-204"/>
<text text-anchor="middle" x="1072" y="-183.2" font-family="Courier,monospace" font-size="11.00">ArrayTrait</text>
</g>
<!-- \\TBela\\CSS\\ElementTrait -->
<g id="node42" class="node"><title>\\TBela\\CSS\\ElementTrait</title>
<polygon fill="none" stroke="black" points="1121,-150 1023,-150 1023,-114 1121,-114 1121,-150"/>
<text text-anchor="middle" x="1072" y="-129.2" font-family="Courier,monospace" font-size="11.00">ElementTrait</text>
</g>
</g>
</svg>
