<svg xmlns="http://www.w3.org/2000/svg" xmlns:xlink="http://www.w3.org/1999/xlink" width="1007pt" height="1712" viewBox="0 0 1007 1284"><g id="graph0" class="graph" transform="scale(1 1) rotate(0) translate(4 1280)"><title>G</title><polygon fill="#fff" stroke="#fff" points="-4 5 -4 -1280 1004 -1280 1004 5 -4 5"/><g id="clust1" class="cluster"><title>cluster_Global</title><path fill="none" stroke="gray" d="M20,-152C20,-152 979,-152 979,-152 985,-152 991,-158 991,-164 991,-164 991,-1256 991,-1256 991,-1262 985,-1268 979,-1268 979,-1268 20,-1268 20,-1268 14,-1268 8,-1262 8,-1256 8,-1256 8,-164 8,-164 8,-158 14,-152 20,-152"/><text x="499.5" y="-1255.2" fill="gray" font-family="Times,serif" font-size="11" text-anchor="middle">Global</text></g><g id="clust2" class="cluster"><title>cluster_\TBela</title><path fill="none" stroke="gray" d="M28,-160C28,-160 971,-160 971,-160 977,-160 983,-166 983,-172 983,-172 983,-1228 983,-1228 983,-1234 977,-1240 971,-1240 971,-1240 28,-1240 28,-1240 22,-1240 16,-1234 16,-1228 16,-1228 16,-172 16,-172 16,-166 22,-160 28,-160"/><text x="499.5" y="-1227.2" fill="gray" font-family="Times,serif" font-size="11" text-anchor="middle">TBela</text></g><g id="clust3" class="cluster"><title>cluster_\TBela\CSS</title><path fill="none" stroke="gray" d="M36,-168C36,-168 963,-168 963,-168 969,-168 975,-174 975,-180 975,-180 975,-1200 975,-1200 975,-1206 969,-1212 963,-1212 963,-1212 36,-1212 36,-1212 30,-1212 24,-1206 24,-1200 24,-1200 24,-180 24,-180 24,-174 30,-168 36,-168"/><text x="499.5" y="-1199.2" fill="gray" font-family="Times,serif" font-size="11" text-anchor="middle">CSS</text></g><g id="clust4" class="cluster"><title>cluster_\TBela\CSS\Element</title><path fill="none" stroke="gray" d="M871,-896C871,-896 955,-896 955,-896 961,-896 967,-902 967,-908 967,-908 967,-1172 967,-1172 967,-1178 961,-1184 955,-1184 955,-1184 871,-1184 871,-1184 865,-1184 859,-1178 859,-1172 859,-1172 859,-908 859,-908 859,-902 865,-896 871,-896"/><text x="913" y="-1171.2" fill="gray" font-family="Times,serif" font-size="11" text-anchor="middle">Element</text></g><g id="clust5" class="cluster"><title>cluster_\TBela\CSS\Elements</title><path fill="none" stroke="gray" d="M710,-896C710,-896 788,-896 788,-896 794,-896 800,-902 800,-908 800,-908 800,-956 800,-956 800,-962 794,-968 788,-968 788,-968 710,-968 710,-968 704,-968 698,-962 698,-956 698,-956 698,-908 698,-908 698,-902 704,-896 710,-896"/><text x="749" y="-955.2" fill="gray" font-family="Times,serif" font-size="11" text-anchor="middle">Elements</text></g><g id="clust6" class="cluster"><title>cluster_\TBela\CSS\Property</title><path fill="none" stroke="gray" d="M44,-276C44,-276 374,-276 374,-276 380,-276 386,-282 386,-288 386,-288 386,-552 386,-552 386,-558 380,-564 374,-564 374,-564 44,-564 44,-564 38,-564 32,-558 32,-552 32,-552 32,-288 32,-288 32,-282 38,-276 44,-276"/><text x="209" y="-551.2" fill="gray" font-family="Times,serif" font-size="11" text-anchor="middle">Property</text></g><g id="clust7" class="cluster"><title>cluster_\TBela\CSS\Value</title><path fill="none" stroke="gray" d="M724,-438C724,-438 955,-438 955,-438 961,-438 967,-444 967,-450 967,-450 967,-876 967,-876 967,-882 961,-888 955,-888 955,-888 724,-888 724,-888 718,-888 712,-882 712,-876 712,-876 712,-450 712,-450 712,-444 718,-438 724,-438"/><text x="839.5" y="-875.2" fill="gray" font-family="Times,serif" font-size="11" text-anchor="middle">Value</text></g><g id="node1" class="node"><title>\\TBela\\CSS\\Element\\AtRule</title><polygon fill="none" stroke="#000" points="941.5 -994 884.5 -994 884.5 -958 941.5 -958 941.5 -994"/><text x="913" y="-973.2" font-family="Courier,monospace" font-size="11" text-anchor="middle">AtRule</text></g><g id="node6" class="node"><title>\\TBela\\CSS\\Elements\\Rules</title><polygon fill="none" stroke="#000" points="791.5 -940 706.5 -940 706.5 -904 791.5 -904 791.5 -940"/><text x="715" y="-925.7" font-family="Courier,monospace" font-size="11" text-anchor="start">«abstract»</text><text x="732" y="-914.7" font-family="Courier,monospace" font-size="11" text-anchor="start">Rules</text></g><g id="edge1" class="edge"><title>\\TBela\\CSS\\Element\\AtRule-&gt;\\TBela\\CSS\\Elements\\Rules</title><path fill="none" stroke="#000" d="M884.151,-966.717C861.511,-959.17 828.952,-948.317 801.579,-939.193"/><polygon fill="none" stroke="#000" points="802.351 -935.761 791.758 -935.919 800.138 -942.402 802.351 -935.761"/></g><g id="node2" class="node"><title>\\TBela\\CSS\\Element\\Comment</title><polygon fill="none" stroke="#000" points="945 -1156 881 -1156 881 -1120 945 -1120 945 -1156"/><text x="913" y="-1135.2" font-family="Courier,monospace" font-size="11" text-anchor="middle">Comment</text></g><g id="node24" class="node"><title>\\TBela\\CSS\\Element</title><polygon fill="none" stroke="#000" points="371.5 -266 286.5 -266 286.5 -230 371.5 -230 371.5 -266"/><text x="295" y="-251.7" font-family="Courier,monospace" font-size="11" text-anchor="start">«abstract»</text><text x="305" y="-240.7" font-family="Courier,monospace" font-size="11" text-anchor="start">Element</text></g><g id="edge2" class="edge"><title>\\TBela\\CSS\\Element\\Comment-&gt;\\TBela\\CSS\\Element</title><path fill="none" stroke="#000" d="M880.883,-1144.59C847.301,-1150.22 792.875,-1155.01 750,-1138"/></g><g id="node3" class="node"><title>\\TBela\\CSS\\Element\\Declaration</title><polygon fill="none" stroke="#000" points="958.5 -1102 867.5 -1102 867.5 -1066 958.5 -1066 958.5 -1102"/><text x="913" y="-1081.2" font-family="Courier,monospace" font-size="11" text-anchor="middle">Declaration</text></g><g id="edge3" class="edge"><title>\\TBela\\CSS\\Element\\Declaration-&gt;\\TBela\\CSS\\Element</title><path fill="none" stroke="#000" d="M874.795,-1102.1C842.642,-1116.34 794.469,-1134.36 750,-1138"/><path fill="none" stroke="#000" d="M748,-1138C480.205,-1159.9 542.323,-864.329 450,-612 397.165,-467.597 482.205,-391.951 386,-272 384.17,-269.718 382.081,-267.649 379.812,-265.773"/><polygon fill="none" stroke="#000" points="381.745 -262.855 371.511 -260.114 377.802 -268.639 381.745 -262.855"/></g><g id="node4" class="node"><title>\\TBela\\CSS\\Element\\Rule</title><polygon fill="none" stroke="#000" points="940 -1048 886 -1048 886 -1012 940 -1012 940 -1048"/><text x="913" y="-1027.2" font-family="Courier,monospace" font-size="11" text-anchor="middle">Rule</text></g><g id="node23" class="node"><title>\\TBela\\CSS\\Elements</title><polygon fill="none" stroke="#000" points="584.5 -603 499.5 -603 499.5 -567 584.5 -567 584.5 -603"/><text x="508" y="-588.7" font-family="Courier,monospace" font-size="11" text-anchor="start">«abstract»</text><text x="514.5" y="-577.7" font-family="Courier,monospace" font-size="11" text-anchor="start">Elements</text></g><g id="edge4" class="edge"><title>\\TBela\\CSS\\Element\\Rule-&gt;\\TBela\\CSS\\Elements</title><path fill="none" stroke="#000" d="M885.814,-1030.07C841.651,-1028.79 751.915,-1019.98 698,-972 587.179,-873.37 554.453,-684.575 545.81,-613.237"/><polygon fill="none" stroke="#000" points="549.277 -612.744 544.663 -603.207 542.322 -613.541 549.277 -612.744"/></g><g id="node5" class="node"><title>\\TBela\\CSS\\Element\\Stylesheet</title><polygon fill="none" stroke="#000" points="955 -940 871 -940 871 -904 955 -904 955 -940"/><text x="913" y="-919.2" font-family="Courier,monospace" font-size="11" text-anchor="middle">Stylesheet</text></g><g id="edge5" class="edge"><title>\\TBela\\CSS\\Element\\Stylesheet-&gt;\\TBela\\CSS\\Elements\\Rules</title><path fill="none" stroke="#000" d="M870.701,-922C849.741,-922 824.069,-922 801.798,-922"/><polygon fill="none" stroke="#000" points="801.505 -918.5 791.505 -922 801.505 -925.5 801.505 -918.5"/></g><g id="edge8" class="edge"><title>\\TBela\\CSS\\Elements\\Rules-&gt;\\TBela\\CSS\\Elements</title><path fill="none" stroke="#000" d="M712.225,-903.994C707.079,-900.46 702.136,-896.449 698,-892 618.014,-805.962 569.419,-670.832 551.211,-612.893"/><polygon fill="none" stroke="#000" points="554.453 -611.529 548.164 -603.003 547.763 -613.59 554.453 -611.529"/></g><g id="node7" class="node"><title>\\TBela\\CSS\\Property\\Comment</title><polygon fill="none" stroke="#000" points="361 -428 297 -428 297 -392 361 -392 361 -428"/><text x="329" y="-407.2" font-family="Courier,monospace" font-size="11" text-anchor="middle">Comment</text></g><g id="node31" class="node"><title>\\ArrayAccess</title><ellipse cx="109" cy="-126" fill="none" stroke="#000" rx="72.588" ry="18"/><text x="109" y="-122.3" fill="gray" font-family="Times,serif" font-size="14" text-anchor="middle">\ArrayAccess</text></g><g id="edge9" class="edge"><title>\\TBela\\CSS\\Property\\Comment-&gt;\\ArrayAccess</title><path fill="none" stroke="#000" stroke-dasharray="1 5" d="M296.526,-396.751C290.399,-393.028 284.493,-388.466 280,-383 214.938,-303.85 278.531,-238.318 208,-164 198.741,-154.243 186.689,-146.955 174.22,-141.522"/><polygon fill="none" stroke="#000" points="175.229 -138.157 164.643 -137.719 172.645 -144.663 175.229 -138.157"/></g><g id="node27" class="node"><title>\\TBela\\CSS\\Rendererable</title><polygon fill="none" stroke="#000" points="158 -268 60 -268 60 -232 158 -232 158 -268"/><text x="109" y="-247.2" font-family="Courier,monospace" font-size="11" text-anchor="middle">Rendererable</text></g><g id="edge10" class="edge"><title>\\TBela\\CSS\\Property\\Comment-&gt;\\TBela\\CSS\\Rendererable</title><path fill="none" stroke="#000" stroke-dasharray="1 5" d="M296.782,-395.358C290.845,-391.793 284.949,-387.647 280,-383 237.13,-342.751 256.262,-305.595 208,-272 196.311,-263.863 182.105,-258.679 168.178,-255.392"/><polygon fill="none" stroke="#000" points="168.628 -251.911 158.127 -253.318 167.213 -258.767 168.628 -251.911"/></g><g id="node8" class="node"><title>\\TBela\\CSS\\Property\\Config</title><polygon fill="none" stroke="#000" points="357.5 -482 300.5 -482 300.5 -446 357.5 -446 357.5 -482"/><text x="329" y="-461.2" font-family="Courier,monospace" font-size="11" text-anchor="middle">Config</text></g><g id="node9" class="node"><title>\\TBela\\CSS\\Property\\Property</title><polygon fill="none" stroke="#000" points="364.5 -536 293.5 -536 293.5 -500 364.5 -500 364.5 -536"/><text x="329" y="-515.2" font-family="Courier,monospace" font-size="11" text-anchor="middle">Property</text></g><g id="edge11" class="edge"><title>\\TBela\\CSS\\Property\\Property-&gt;\\ArrayAccess</title><path fill="none" stroke="#000" stroke-dasharray="1 5" d="M293.162,-503.191C288.163,-499.803 283.529,-495.763 280,-491 191.419,-371.421 304.868,-276.971 208,-164 199.386,-153.954 187.789,-146.551 175.59,-141.099"/><polygon fill="none" stroke="#000" points="176.766 -137.799 166.183 -137.298 174.144 -144.289 176.766 -137.799"/></g><g id="edge12" class="edge"><title>\\TBela\\CSS\\Property\\Property-&gt;\\TBela\\CSS\\Rendererable</title><path fill="none" stroke="#000" stroke-dasharray="1 5" d="M293.08,-502.547C288.215,-499.269 283.643,-495.432 280,-491 214.938,-411.85 283.87,-340.859 208,-272 197.037,-262.05 182.566,-256.28 168.119,-253.012"/><polygon fill="none" stroke="#000" points="168.642 -249.549 158.166 -251.128 167.34 -256.427 168.642 -249.549"/></g><g id="node12" class="node"><title>\\TBela\\CSS\\Property\\RenderableProperty</title><polygon fill="none" stroke="#000" points="178 -536 40 -536 40 -500 178 -500 178 -536"/><text x="109" y="-515.2" font-family="Courier,monospace" font-size="11" text-anchor="middle">RenderableProperty</text></g><g id="edge13" class="edge"><title>\\TBela\\CSS\\Property\\Property-&gt;\\TBela\\CSS\\Property\\RenderableProperty</title><path fill="none" stroke="#000" stroke-dasharray="1 5" d="M293.457,-518C265.254,-518 224.311,-518 188.255,-518"/><polygon fill="none" stroke="#000" points="188.23 -514.5 178.23 -518 188.23 -521.5 188.23 -514.5"/></g><g id="node10" class="node"><title>\\TBela\\CSS\\Property\\PropertyList</title><polygon fill="none" stroke="#000" points="378 -374 280 -374 280 -338 378 -338 378 -374"/><text x="329" y="-353.2" font-family="Courier,monospace" font-size="11" text-anchor="middle">PropertyList</text></g><g id="node32" class="node"><title>\\IteratorAggregate</title><ellipse cx="109" cy="-72" fill="none" stroke="#000" rx="98.583" ry="18"/><text x="109" y="-68.3" fill="gray" font-family="Times,serif" font-size="14" text-anchor="middle">\IteratorAggregate</text></g><g id="edge14" class="edge"><title>\\TBela\\CSS\\Property\\PropertyList-&gt;\\IteratorAggregate</title><path fill="none" stroke="#000" stroke-dasharray="1 5" d="M289.215,-337.844C285.804,-335.212 282.648,-332.269 280,-329 212.573,-245.771 285.038,-173.422 208,-99 203.69,-94.8368 198.8,-91.303 193.559,-88.3049"/><polygon fill="none" stroke="#000" points="194.957 -85.091 184.448 -83.748 191.826 -91.352 194.957 -85.091"/></g><g id="node11" class="node"><title>\\TBela\\CSS\\Property\\PropertySet</title><polygon fill="none" stroke="#000" points="374.5 -320 283.5 -320 283.5 -284 374.5 -284 374.5 -320"/><text x="329" y="-299.2" font-family="Courier,monospace" font-size="11" text-anchor="middle">PropertySet</text></g><g id="node13" class="node"><title>\\TBela\\CSS\\Value\\Comment</title><polygon fill="none" stroke="#000" points="945 -536 881 -536 881 -500 945 -500 945 -536"/><text x="913" y="-515.2" font-family="Courier,monospace" font-size="11" text-anchor="middle">Comment</text></g><g id="node33" class="node"><title>\\TBela\\CSS\\Value</title><ellipse cx="542" cy="-126" fill="none" stroke="#000" rx="91.784" ry="18"/><text x="542" y="-122.3" fill="gray" font-family="Times,serif" font-size="14" text-anchor="middle">\TBela\CSS\Value</text></g><g id="edge15" class="edge"><title>\\TBela\\CSS\\Value\\Comment-&gt;\\TBela\\CSS\\Value</title><path fill="none" stroke="#000" d="M880.786,-531.875C873.381,-535.708 865.695,-540.16 859,-545 803.734,-584.956 806.353,-691.409 750,-653"/><path fill="none" stroke="#000" d="M748,-653C563.598,-527.314 778.128,-334.376 634,-164 627.213,-155.977 618.448,-149.616 609.045,-144.582"/><polygon fill="none" stroke="#000" points="610.405 -141.352 599.878 -140.152 607.359 -147.655 610.405 -141.352"/></g><g id="node14" class="node"><title>\\TBela\\CSS\\Value\\CSSFunction</title><polygon fill="none" stroke="#000" points="958.5 -806 867.5 -806 867.5 -770 958.5 -770 958.5 -806"/><text x="913" y="-785.2" font-family="Courier,monospace" font-size="11" text-anchor="middle">CSSFunction</text></g><g id="edge16" class="edge"><title>\\TBela\\CSS\\Value\\CSSFunction-&gt;\\TBela\\CSS\\Value</title><path fill="none" stroke="#000" d="M872.962,-769.883C868.122,-767.128 863.352,-764.146 859,-761 803.734,-721.044 806.353,-691.409 750,-653"/></g><g id="node15" class="node"><title>\\TBela\\CSS\\Value\\Number</title><polygon fill="none" stroke="#000" points="777.5 -788 720.5 -788 720.5 -752 777.5 -752 777.5 -788"/><text x="749" y="-767.2" font-family="Courier,monospace" font-size="11" text-anchor="middle">Number</text></g><g id="edge17" class="edge"><title>\\TBela\\CSS\\Value\\Number-&gt;\\TBela\\CSS\\Value</title><path fill="none" stroke="#000" d="M736.871,-751.76C725.203,-731.729 707.298,-698.245 698,-667 633.722,-451.003 770.543,-343.282 634,-164 627.854,-155.93 619.678,-149.56 610.741,-144.535"/><polygon fill="none" stroke="#000" points="612.106 -141.304 601.598 -139.946 608.965 -147.56 612.106 -141.304"/></g><g id="node16" class="node"><title>\\TBela\\CSS\\Value\\Separator</title><polygon fill="none" stroke="#000" points="951.5 -752 874.5 -752 874.5 -716 951.5 -716 951.5 -752"/><text x="913" y="-731.2" font-family="Courier,monospace" font-size="11" text-anchor="middle">Separator</text></g><g id="edge18" class="edge"><title>\\TBela\\CSS\\Value\\Separator-&gt;\\TBela\\CSS\\Value</title><path fill="none" stroke="#000" d="M874.397,-718.659C840.51,-704.045 790.014,-680.273 750,-653"/></g><g id="node17" class="node"><title>\\TBela\\CSS\\Value\\Set</title><polygon fill="none" stroke="#000" points="940 -482 886 -482 886 -446 940 -446 940 -482"/><text x="913" y="-461.2" font-family="Courier,monospace" font-size="11" text-anchor="middle">Set</text></g><g id="edge19" class="edge"><title>\\TBela\\CSS\\Value\\Set-&gt;\\IteratorAggregate</title><path fill="none" stroke="#000" stroke-dasharray="1 5" d="M328,-72C291.984,-69.7982 252.559,-69.2364 217.258,-69.3984"/><polygon fill="none" stroke="#000" points="216.909 -65.9 206.933 -69.467 216.956 -72.9 216.909 -65.9"/></g><g id="node34" class="node"><title>\\JsonSerializable</title><ellipse cx="109" cy="-18" fill="none" stroke="#000" rx="88.284" ry="18"/><text x="109" y="-14.3" fill="gray" font-family="Times,serif" font-size="14" text-anchor="middle">\JsonSerializable</text></g><g id="edge20" class="edge"><title>\\TBela\\CSS\\Value\\Set-&gt;\\JsonSerializable</title><path fill="none" stroke="#000" stroke-dasharray="1 5" d="M885.761,-456.631C876.633,-453.198 866.749,-448.419 859,-442 718.603,-325.69 790.43,-192.643 634,-99 517.617,-29.3301 465.39,-80.277 330,-72"/><path fill="none" stroke="#000" stroke-dasharray="1 5" d="M328,-72C312.549,-70.7275 232.15,-50.1924 173.469,-34.8211"/><polygon fill="none" stroke="#000" points="174.081 -31.363 163.52 -32.21 172.304 -38.134 174.081 -31.363"/></g><g id="node18" class="node"><title>\\TBela\\CSS\\Value\\Unit</title><polygon fill="none" stroke="#000" points="940 -860 886 -860 886 -824 940 -824 940 -860"/><text x="913" y="-839.2" font-family="Courier,monospace" font-size="11" text-anchor="middle">Unit</text></g><g id="edge21" class="edge"><title>\\TBela\\CSS\\Value\\Unit-&gt;\\TBela\\CSS\\Value\\Number</title><path fill="none" stroke="#000" d="M885.972,-830.432C859.177,-818.523 817.188,-799.861 786.958,-786.426"/><polygon fill="none" stroke="#000" points="788.15 -783.125 777.59 -782.262 785.307 -789.522 788.15 -783.125"/></g><g id="node19" class="node"><title>\\TBela\\CSS\\Value\\Whitespace</title><polygon fill="none" stroke="#000" points="955 -698 871 -698 871 -662 955 -662 955 -698"/><text x="913" y="-677.2" font-family="Courier,monospace" font-size="11" text-anchor="middle">Whitespace</text></g><g id="edge22" class="edge"><title>\\TBela\\CSS\\Value\\Whitespace-&gt;\\TBela\\CSS\\Value</title><path fill="none" stroke="#000" d="M870.899,-682.338C835.877,-682.318 785.694,-677.329 750,-653"/></g><g id="node20" class="node"><title>\\TBela\\CSS\\Value\\CssString</title><polygon fill="none" stroke="#000" points="951.5 -644 874.5 -644 874.5 -608 951.5 -608 951.5 -644"/><text x="913" y="-623.2" font-family="Courier,monospace" font-size="11" text-anchor="middle">CssString</text></g><g id="edge23" class="edge"><title>\\TBela\\CSS\\Value\\CssString-&gt;\\TBela\\CSS\\Value</title><path fill="none" stroke="#000" d="M879.561,-644.006C844.596,-660.735 788.757,-679.417 750,-653"/></g><g id="node21" class="node"><title>\\TBela\\CSS\\Value\\FontWeight</title><polygon fill="none" stroke="#000" points="955 -590 871 -590 871 -554 955 -554 955 -590"/><text x="913" y="-569.2" font-family="Courier,monospace" font-size="11" text-anchor="middle">FontWeight</text></g><g id="edge24" class="edge"><title>\\TBela\\CSS\\Value\\FontWeight-&gt;\\TBela\\CSS\\Value</title><path fill="none" stroke="#000" d="M876.248,-590.114C828.761,-614.14 750.723,-653.493 750,-653"/></g><g id="node22" class="node"><title>\\TBela\\CSS\\Compiler</title><polygon fill="none" stroke="#000" points="948.5 -428 877.5 -428 877.5 -392 948.5 -392 948.5 -428"/><text x="913" y="-407.2" font-family="Courier,monospace" font-size="11" text-anchor="middle">Compiler</text></g><g id="edge6" class="edge"><title>\\TBela\\CSS\\Elements-&gt;\\TBela\\CSS\\Element</title><path fill="none" stroke="#000" d="M536.743,-566.793C523.537,-514.08 478.481,-359.537 386,-272 384.152,-270.25 382.156,-268.618 380.057,-267.095"/><polygon fill="none" stroke="#000" points="381.874 -264.103 371.542 -261.757 378.155 -270.034 381.874 -264.103"/></g><g id="node28" class="node"><title>\\TBela\\CSS\\RuleList</title><polygon fill="none" stroke="#000" points="364.5 -212 293.5 -212 293.5 -176 364.5 -176 364.5 -212"/><text x="329" y="-191.2" font-family="Courier,monospace" font-size="11" text-anchor="middle">RuleList</text></g><g id="edge7" class="edge"><title>\\TBela\\CSS\\Elements-&gt;\\TBela\\CSS\\RuleList</title><path fill="none" stroke="#000" stroke-dasharray="1 5" d="M537.899,-566.599C527.235,-508.543 487.006,-326.836 386,-221 382.367,-217.194 378.087,-213.858 373.538,-210.951"/><polygon fill="none" stroke="#000" points="374.987 -207.75 364.559 -205.881 371.545 -213.845 374.987 -207.75"/></g><g id="edge25" class="edge"><title>\\TBela\\CSS\\Element-&gt;\\JsonSerializable</title><path fill="none" stroke="#000" stroke-dasharray="1 5" d="M289.969,-229.957C286.326,-227.281 282.911,-224.297 280,-221 224.059,-157.649 271.222,-101.086 208,-45 202.509,-40.1287 196.215,-36.1276 189.524,-32.8425"/><polygon fill="none" stroke="#000" points="190.76 -29.563 180.193 -28.792 187.972 -35.984 190.76 -29.563"/></g><g id="edge26" class="edge"><title>\\TBela\\CSS\\Element-&gt;\\ArrayAccess</title><path fill="none" stroke="#000" stroke-dasharray="1 5" d="M294.283,-229.924C289.415,-227.06 284.525,-224.037 280,-221 246.109,-198.258 243.424,-184.272 208,-164 194.358,-156.193 178.802,-149.338 164.164,-143.678"/><polygon fill="none" stroke="#000" points="165.3 -140.366 154.707 -140.133 162.843 -146.92 165.3 -140.366"/></g><g id="edge27" class="edge"><title>\\TBela\\CSS\\Element-&gt;\\TBela\\CSS\\Rendererable</title><path fill="none" stroke="#000" stroke-dasharray="1 5" d="M286.483,-248.381C253.058,-248.688 205.677,-249.122 168.423,-249.464"/><polygon fill="none" stroke="#000" points="168.171 -245.966 158.204 -249.558 168.236 -252.966 168.171 -245.966"/></g><g id="node25" class="node"><title>\\TBela\\CSS\\Parser</title><polygon fill="none" stroke="#000" points="941.5 -374 884.5 -374 884.5 -338 941.5 -338 941.5 -374"/><text x="913" y="-353.2" font-family="Courier,monospace" font-size="11" text-anchor="middle">Parser</text></g><g id="node26" class="node"><title>\\TBela\\CSS\\Renderer</title><polygon fill="none" stroke="#000" points="948.5 -320 877.5 -320 877.5 -284 948.5 -284 948.5 -320"/><text x="913" y="-299.2" font-family="Courier,monospace" font-size="11" text-anchor="middle">Renderer</text></g><g id="edge28" class="edge"><title>\\TBela\\CSS\\RuleList-&gt;\\IteratorAggregate</title><path fill="none" stroke="#000" d="M310.112,-175.956C287.987,-154.617 248.289,-119.427 208,-99 200.28,-95.0861 191.922,-91.6809 183.453,-88.7332"/><polygon fill="none" stroke="#000" points="184.464 -85.382 173.872 -85.597 182.286 -92.034 184.464 -85.382"/></g><g id="node29" class="node"><title>\\TBela\\CSS\\ArrayTrait</title><polygon fill="none" stroke="#000" points="955 -266 871 -266 871 -230 955 -230 955 -266"/><text x="913" y="-245.2" font-family="Courier,monospace" font-size="11" text-anchor="middle">ArrayTrait</text></g><g id="node30" class="node"><title>\\TBela\\CSS\\ElementTrait</title><polygon fill="none" stroke="#000" points="962 -212 864 -212 864 -176 962 -176 962 -212"/><text x="913" y="-191.2" font-family="Courier,monospace" font-size="11" text-anchor="middle">ElementTrait</text></g></g></svg>